<?xml version="1.0" standalone="no"?>
<!DOCTYPE svg PUBLIC "-//W3C//DTD SVG 20010904//EN"
 "http://www.w3.org/TR/2001/REC-SVG-20010904/DTD/svg10.dtd">
<svg version="1.0" xmlns="http://www.w3.org/2000/svg"
 width="800.000000pt" height="800.000000pt" viewBox="0 0 800.000000 800.000000"
 preserveAspectRatio="xMidYMid meet">
<metadata>
Created by potrace 1.14, written by Peter Selinger 2001-2017
</metadata>
<g transform="translate(0.000000,800.000000) scale(0.100000,-0.100000)"
fill="#000000" stroke="none">
<path d="M0 4000 l0 -4000 4000 0 4000 0 0 2486 c0 1988 -3 2484 -12 2477 -7
-6 -62 -50 -121 -99 -60 -49 -121 -98 -136 -109 -15 -11 -37 -29 -49 -41 l-23
-21 26 -17 c35 -23 34 -69 -1 -93 -24 -15 -29 -15 -53 -2 -16 9 -27 25 -29 42
-2 15 -8 25 -13 22 -22 -14 -6 16 17 32 l26 16 -25 14 c-45 23 -44 78 1 102
23 12 63 -6 78 -36 10 -22 17 -18 157 97 80 66 148 124 152 130 11 17 -14 11
-77 -20 -34 -17 -65 -29 -70 -28 -5 2 24 19 64 38 113 54 117 70 16 71 -40 1
-64 3 -53 5 11 2 44 9 73 15 l52 10 0 1455 0 1454 -4000 0 -4000 0 0 -4000z
m3778 3744 c41 -28 18 -104 -31 -104 -53 0 -77 75 -35 104 12 9 27 16 33 16 6
0 21 -7 33 -16z m136 0 c36 -35 9 -94 -43 -94 -35 0 -51 17 -51 55 0 17 5 36
12 43 17 17 64 15 82 -4z m137 -8 c15 -32 4 -73 -22 -81 -32 -10 -67 3 -75 28
-16 47 4 77 52 77 27 0 37 -6 45 -24z m121 7 c33 -30 21 -75 -25 -92 -24 -9
-31 -8 -53 14 -28 28 -30 42 -8 73 18 26 60 29 86 5z m136 -11 c6 -9 12 -25
12 -36 0 -52 -75 -76 -104 -34 -22 31 -20 45 9 74 27 27 59 26 83 -4z m-648
-11 c23 -45 1 -91 -45 -91 -31 0 -55 25 -55 59 0 36 17 51 57 51 22 0 36 -6
43 -19z m772 2 c39 -35 7 -98 -48 -91 -18 2 -34 13 -43 29 -13 24 -13 29 2 53
20 30 61 35 89 9z m-908 -12 c25 -27 17 -72 -15 -90 -24 -13 -29 -13 -53 2
-17 12 -26 26 -26 44 0 55 59 83 94 44z m1036 -1 c11 -11 20 -29 20 -40 0 -26
-34 -60 -60 -60 -26 0 -60 34 -60 60 0 26 34 60 60 60 11 0 29 -9 40 -20z
m-1168 -12 c30 -24 31 -56 4 -83 -14 -14 -32 -25 -41 -25 -21 0 -55 36 -55 60
0 25 34 60 58 60 10 0 25 -6 34 -12z m1293 -13 c30 -29 31 -49 5 -75 -24 -24
-48 -25 -78 -4 -28 19 -29 57 -2 84 26 26 46 25 75 -5z m-1413 -22 c22 -20 23
-42 2 -71 -22 -32 -73 -27 -93 9 -13 24 -13 29 2 53 20 30 61 35 89 9z m1542
1 c19 -18 21 -65 4 -82 -31 -31 -98 -5 -98 38 0 35 23 60 55 60 13 0 31 -7 39
-16z m1185 -10 c42 -53 9 -119 -57 -117 -75 2 -87 93 -17 131 32 18 52 14 74
-14z m-2861 -10 c42 -29 18 -104 -34 -104 -52 0 -75 74 -32 104 12 9 27 16 33
16 6 0 21 -7 33 -16z m1804 -11 c39 -35 7 -98 -48 -91 -18 2 -34 13 -43 29
-13 24 -13 29 2 53 20 30 61 35 89 9z m-1915 -39 c15 -24 15 -29 2 -53 -27
-48 -109 -32 -109 22 0 56 76 77 107 31z m2037 7 c25 -27 17 -72 -15 -90 -24
-13 -29 -13 -53 2 -34 22 -36 69 -4 91 30 21 51 20 72 -3z m-2166 -33 c29 -29
1 -98 -40 -98 -37 0 -58 19 -58 53 0 41 15 57 55 57 17 0 36 -5 43 -12z m2298
-13 c37 -56 -22 -117 -75 -77 -33 24 -38 55 -12 81 29 29 67 27 87 -4z m-2424
-32 c37 -33 10 -93 -43 -93 -50 0 -70 54 -36 98 13 17 57 15 79 -5z m2536 1
c28 -19 29 -57 2 -84 -27 -27 -55 -25 -79 7 -44 56 18 119 77 77z m-3688 -14
c-8 -5 -19 -10 -25 -10 -5 0 -3 5 5 10 8 5 20 10 25 10 6 0 3 -5 -5 -10z
m1030 -30 c11 -11 20 -29 20 -40 0 -23 -33 -60 -54 -60 -62 0 -86 82 -33 108
32 16 45 14 67 -8z m2784 -6 c34 -34 10 -96 -37 -96 -38 0 -57 19 -57 58 0 50
59 74 94 38z m-3994 -83 c-63 -44 -143 -103 -176 -133 -34 -29 -87 -66 -118
-82 -31 -16 -63 -37 -72 -47 -16 -17 -15 -19 7 -28 13 -5 49 -8 80 -7 44 1 63
7 91 28 42 32 101 44 141 29 22 -9 27 -16 27 -46 0 -88 -59 -147 -126 -125
-19 6 -34 16 -34 21 0 5 -12 15 -27 22 -16 6 -31 16 -35 21 -3 5 -30 11 -60
13 -51 4 -55 3 -102 -41 -26 -25 -54 -46 -61 -46 -7 0 -18 -7 -25 -15 -11 -14
-70 -297 -100 -485 -6 -36 -15 -78 -20 -95 -5 -16 -12 -47 -15 -69 -4 -21 -9
-36 -12 -33 -3 3 2 50 11 104 64 389 86 533 86 561 0 42 -38 82 -77 82 -26 0
-263 -68 -468 -134 -87 -28 -97 -31 -75 -16 15 10 58 24 374 126 181 58 204
75 202 151 -1 40 -7 57 -25 77 -14 14 -22 29 -19 32 4 3 17 -8 29 -25 13 -17
37 -40 54 -50 27 -16 34 -16 50 -5 25 19 65 18 65 -1 0 -38 31 -21 390 208 74
47 139 86 145 87 5 0 -42 -36 -105 -79z m1098 31 c18 -23 15 -49 -8 -72 -34
-34 -80 -20 -95 27 -9 32 36 77 68 68 12 -4 28 -14 35 -23z m1482 -17 c0 -27
-26 -40 -46 -24 -19 16 -18 36 3 47 24 14 43 4 43 -23z m1532 18 c31 -28 22
-70 -20 -92 -36 -19 -72 9 -72 54 0 51 53 74 92 38z m-1778 -8 c27 -28 -10
-69 -40 -44 -17 14 -18 31 -2 47 16 16 23 15 42 -3z m124 -13 c4 -28 -24 -40
-45 -19 -21 21 -9 49 19 45 15 -2 24 -11 26 -26z m240 2 c3 -23 -18 -37 -43
-28 -16 6 -20 35 -8 48 14 14 48 1 51 -20z m116 2 c9 -13 7 -20 -8 -31 -23
-17 -46 -4 -46 25 0 32 36 36 54 6z m-590 -11 c7 -19 -20 -46 -39 -39 -21 8
-26 32 -9 48 16 17 40 12 48 -9z m706 10 c18 -21 5 -45 -25 -45 -40 0 -34 54
6 59 4 1 12 -6 19 -14z m-826 -20 c8 -23 -4 -45 -25 -45 -22 0 -34 22 -25 45
3 8 14 15 25 15 10 0 21 -7 25 -15z m950 -1 c7 -19 -10 -44 -31 -44 -17 0 -27
24 -19 45 7 20 42 19 50 -1z m-2080 -10 c36 -35 9 -94 -43 -94 -34 0 -51 17
-51 51 0 34 24 59 55 59 13 0 31 -7 39 -16z m3270 -27 c23 -63 -64 -107 -100
-52 -14 21 -15 31 -5 51 22 49 88 50 105 1z m-2259 3 c0 -18 -6 -26 -23 -28
-24 -4 -38 18 -28 44 3 9 15 14 28 12 17 -2 23 -10 23 -28z m1188 18 c6 -18
-11 -48 -27 -48 -20 0 -37 25 -30 44 7 19 50 22 57 4z m-3868 -9 c11 -17 -1
-21 -15 -4 -8 9 -8 15 -2 15 6 0 14 -5 17 -11z m2560 -29 c0 -18 -6 -26 -23
-28 -27 -4 -40 22 -22 44 19 22 45 13 45 -16z m1420 0 c0 -18 -6 -26 -23 -28
-13 -2 -25 3 -28 12 -10 26 4 48 28 44 17 -2 23 -10 23 -28z m125 -24 c0 -20
-25 -37 -44 -30 -19 7 -22 50 -3 57 17 6 47 -11 47 -27z m-2550 9 c7 -8 13
-26 13 -40 0 -14 -6 -32 -13 -40 -28 -33 -100 -6 -100 38 0 47 71 77 100 42z
m896 0 c7 -18 -13 -45 -33 -45 -17 0 -27 24 -19 45 7 20 45 19 52 0z m714 -18
c0 -17 -20 -37 -37 -37 -7 0 -17 9 -23 19 -14 28 13 55 41 41 10 -6 19 -16 19
-23z m105 3 c0 -18 -6 -26 -23 -28 -27 -4 -40 22 -22 44 19 22 45 13 45 -16z
m119 7 c13 -21 -13 -51 -36 -42 -24 10 -29 32 -11 50 18 18 32 16 47 -8z
m1654 1 c17 -15 15 -58 -5 -80 -33 -37 -93 -10 -93 43 0 49 56 70 98 37z
m-2003 -18 c0 -18 -6 -26 -23 -28 -13 -2 -25 3 -28 12 -10 26 4 48 28 44 17
-2 23 -10 23 -28z m460 0 c0 -18 -6 -26 -23 -28 -24 -4 -38 18 -28 44 3 9 15
14 28 12 17 -2 23 -10 23 -28z m-575 5 c17 -21 5 -45 -24 -45 -28 0 -37 17
-24 43 11 21 31 22 48 2z m694 0 c8 -23 -4 -45 -25 -45 -22 0 -34 22 -25 45 3
8 14 15 25 15 10 0 21 -7 25 -15z m594 -24 c-4 -31 -35 -36 -52 -8 -9 14 -7
21 7 32 27 19 49 8 45 -24z m-1883 -1 c0 -18 -6 -26 -23 -28 -13 -2 -25 3 -28
12 -10 26 4 48 28 44 17 -2 23 -10 23 -28z m485 -5 c0 -25 -21 -38 -45 -29
-17 7 -20 35 -4 51 17 17 49 3 49 -22z m904 29 c20 -8 21 -38 1 -54 -29 -24
-60 21 -33 48 14 14 12 14 32 6z m-3664 -14 c0 -5 -2 -10 -4 -10 -3 0 -8 5
-11 10 -3 6 -1 10 4 10 6 0 11 -4 11 -10z m2644 -22 c14 -22 -12 -52 -37 -42
-17 6 -23 44 -10 58 11 11 35 3 47 -16z m1145 8 c16 -20 3 -46 -24 -46 -27 0
-36 17 -23 43 10 20 31 22 47 3z m-2407 -13 c36 -32 13 -95 -35 -95 -36 0 -57
19 -57 53 0 52 53 77 92 42z m782 -7 c9 -13 7 -20 -7 -31 -25 -18 -47 -8 -47
20 0 37 34 44 54 11z m2105 10 c15 -18 3 -46 -20 -46 -22 0 -34 22 -25 45 7
19 30 19 45 1z m-1734 -24 c9 -23 -21 -49 -42 -36 -24 15 -26 29 -8 47 18 18
40 13 50 -11z m1369 5 c16 -25 -16 -56 -38 -37 -19 15 -20 32 -4 48 15 15 28
11 42 -11z m1203 -3 c15 -24 15 -29 2 -53 -20 -36 -71 -41 -93 -9 -20 29 -20
47 1 70 24 27 69 23 90 -8z m-3059 -21 c13 -26 4 -43 -23 -43 -13 0 -25 6 -28
13 -6 17 11 47 28 47 8 0 18 -8 23 -17z m367 -13 c0 -18 -6 -26 -23 -28 -27
-4 -40 22 -22 44 19 22 45 13 45 -16z m1600 0 c0 -18 -6 -26 -23 -28 -24 -4
-38 18 -28 44 3 9 15 14 28 12 17 -2 23 -10 23 -28z m370 0 c0 -18 -6 -26 -23
-28 -24 -4 -38 18 -28 44 3 9 15 14 28 12 17 -2 23 -10 23 -28z m-1287 11 c23
-14 10 -46 -18 -46 -16 0 -26 6 -28 19 -3 16 12 36 28 36 3 0 11 -4 18 -9z
m117 -21 c0 -18 -6 -26 -23 -28 -13 -2 -25 3 -28 12 -10 26 4 48 28 44 17 -2
23 -10 23 -28z m110 0 c0 -18 -6 -26 -23 -28 -27 -4 -40 22 -22 44 19 22 45
13 45 -16z m-330 -10 c0 -18 -6 -26 -23 -28 -24 -4 -38 18 -28 44 3 9 15 14
28 12 17 -2 23 -10 23 -28z m449 14 c7 -19 -10 -44 -29 -44 -19 0 -36 25 -29
44 3 9 16 16 29 16 13 0 26 -7 29 -16z m3120 3 c26 -19 17 -51 -15 -55 -36 -4
-54 20 -37 47 15 24 27 26 52 8z m-5290 -13 c35 -34 6 -94 -45 -94 -43 0 -68
67 -37 98 17 17 64 15 82 -4z m1024 7 c21 -13 10 -46 -16 -49 -27 -4 -40 22
-22 43 14 17 20 18 38 6z m587 -1 c11 -18 -6 -50 -26 -50 -22 0 -34 22 -25 45
6 17 42 20 51 5z m669 -6 c7 -19 -10 -44 -30 -44 -16 0 -33 30 -27 48 7 18 50
15 57 -4z m571 -14 c0 -18 -6 -26 -21 -28 -23 -3 -37 18 -27 44 10 25 48 13
48 -16z m1093 2 c18 -23 15 -49 -8 -72 -26 -26 -55 -25 -81 1 -15 15 -19 28
-14 47 4 15 7 27 8 28 42 26 72 25 95 -4z m568 15 c0 -1 8 -13 17 -27 9 -13
17 -41 17 -61 0 -85 -118 -121 -155 -48 -41 79 11 158 95 142 14 -3 25 -5 26
-6z m-3846 -33 c0 -29 -24 -41 -45 -24 -19 16 -19 25 0 44 21 20 45 9 45 -20z
m829 22 c17 -20 3 -46 -25 -46 -18 0 -24 5 -24 23 0 38 26 50 49 23z m890 0
c15 -18 3 -46 -20 -46 -22 0 -34 22 -25 45 7 19 30 19 45 1z m829 5 c23 -14
10 -46 -18 -46 -16 0 -26 6 -28 19 -3 16 12 36 28 36 3 0 11 -4 18 -9z m-1824
-26 c13 -36 -24 -61 -52 -33 -7 7 -8 17 -1 30 12 22 45 24 53 3z m1112 0 c7
-18 -13 -45 -33 -45 -17 0 -27 24 -19 45 7 20 45 19 52 0z m462 -18 c3 -23 0
-27 -23 -27 -30 0 -43 24 -25 46 19 22 45 13 48 -19z m-2040 -3 c4 -27 -26
-40 -46 -20 -21 20 -8 48 20 44 14 -2 24 -11 26 -24z m352 1 c17 -20 5 -45
-20 -45 -23 0 -35 22 -26 45 7 19 30 19 46 0z m1334 0 c8 -23 -4 -45 -25 -45
-22 0 -34 22 -25 45 3 8 14 15 25 15 10 0 21 -7 25 -15z m-2056 -12 c13 -26 4
-43 -23 -43 -27 0 -40 26 -24 46 16 19 37 17 47 -3z m2777 -13 c0 -18 -6 -26
-23 -28 -24 -4 -38 18 -28 44 3 9 15 14 28 12 17 -2 23 -10 23 -28z m-3441 4
c36 -35 9 -94 -43 -94 -34 0 -51 17 -51 51 0 34 24 59 55 59 13 0 31 -7 39
-16z m910 10 c19 -7 21 -35 4 -52 -7 -7 -17 -8 -30 -1 -21 11 -23 30 -6 47 14
14 12 14 32 6z m376 -28 c0 -20 -27 -39 -45 -32 -18 6 -20 37 -3 54 14 14 48
-2 48 -22z m1534 19 c17 -17 12 -40 -9 -49 -23 -9 -47 22 -35 45 13 23 24 24
44 4z m361 -15 c0 -18 -6 -26 -23 -28 -13 -2 -25 3 -28 12 -10 26 4 48 28 44
17 -2 23 -10 23 -28z m981 -5 c13 -21 15 -31 6 -50 -22 -48 -95 -41 -108 11
-14 57 69 89 102 39z m-2992 -18 c16 -25 -16 -56 -38 -37 -19 15 -20 32 -4 48
15 15 28 11 42 -11z m1764 6 c13 -26 4 -43 -24 -43 -29 0 -41 24 -24 45 17 20
37 19 48 -2z m-2378 -8 c18 -21 5 -45 -25 -45 -40 0 -34 54 6 59 4 1 12 -6 19
-14z m264 -10 c6 -17 -21 -48 -37 -42 -6 2 -15 11 -21 21 -9 13 -7 20 7 31 21
15 43 11 51 -10z m2471 -5 c0 -18 -6 -26 -23 -28 -24 -4 -38 18 -28 44 3 9 15
14 28 12 17 -2 23 -10 23 -28z m260 20 c11 -18 -6 -50 -26 -50 -22 0 -34 22
-25 45 6 17 42 20 51 5z m-505 -49 c0 -23 -28 -35 -46 -20 -17 14 -18 31 -2
47 15 15 48 -3 48 -27z m-3158 17 c30 -24 31 -56 4 -83 -14 -14 -32 -25 -41
-25 -21 0 -55 36 -55 60 0 25 34 60 58 60 10 0 25 -6 34 -12z m1176 0 c14 -14
-2 -48 -22 -48 -20 0 -37 25 -30 44 7 19 35 21 52 4z m3194 -15 c36 -32 13
-95 -35 -95 -36 0 -57 19 -57 53 0 52 53 77 92 42z m-3547 -13 c8 -26 -1 -40
-26 -40 -22 0 -34 22 -25 45 8 22 44 18 51 -5z m2689 4 c7 -19 -10 -44 -30
-44 -16 0 -33 30 -27 48 7 18 50 15 57 -4z m254 -17 c3 -23 0 -27 -23 -27 -30
0 -43 24 -25 46 19 22 45 13 48 -19z m-3200 -3 c3 -23 -18 -37 -43 -28 -16 6
-20 35 -8 48 14 14 48 1 51 -20z m506 3 c8 -12 7 -21 -5 -32 -21 -21 -49 -9
-49 20 0 36 34 44 54 12z m2185 9 c16 -20 3 -46 -24 -46 -27 0 -36 17 -23 43
10 20 31 22 47 3z m361 -55 c0 -23 -28 -35 -46 -20 -17 14 -18 31 -2 47 15 15
48 -3 48 -27z m-2902 1 c4 -28 -24 -41 -44 -20 -20 20 -7 50 20 46 13 -2 22
-12 24 -26z m256 3 c6 -17 -21 -48 -37 -42 -6 2 -15 11 -21 21 -9 13 -7 20 7
31 21 15 43 11 51 -10z m2391 -5 c0 -18 -6 -26 -23 -28 -24 -4 -38 18 -28 44
3 9 15 14 28 12 17 -2 23 -10 23 -28z m-3463 3 c37 -34 15 -93 -35 -93 -39 0
-57 15 -57 49 0 52 54 78 92 44z m568 -17 c0 -20 -25 -37 -44 -30 -19 7 -22
50 -3 57 17 6 47 -11 47 -27z m1507 19 c18 -13 22 -13 33 0 15 18 61 20 78 3
9 -9 15 -9 24 0 15 15 53 15 78 0 15 -10 22 -10 32 0 16 16 53 15 67 -2 10
-12 16 -12 42 1 27 13 32 13 54 -1 19 -12 30 -14 51 -5 23 8 33 6 55 -10 17
-13 30 -17 34 -11 10 16 57 12 77 -7 14 -13 21 -14 30 -5 18 18 46 14 68 -8
17 -17 24 -18 41 -9 23 12 69 -1 69 -20 0 -5 17 -7 38 -4 26 3 43 0 53 -9 8
-8 31 -14 53 -14 25 0 43 -6 51 -18 9 -11 20 -16 33 -12 25 8 72 -9 72 -27 0
-9 12 -11 39 -9 31 3 41 0 50 -16 8 -15 20 -20 47 -19 26 1 40 -5 52 -21 12
-15 24 -20 39 -16 15 4 29 -2 47 -19 15 -15 40 -27 58 -29 23 -2 36 -10 43
-26 8 -17 16 -21 33 -17 16 4 30 -2 50 -22 15 -15 33 -26 40 -25 19 4 62 -26
62 -43 0 -9 13 -15 37 -17 28 -2 41 -9 50 -27 7 -16 21 -25 38 -26 27 -1 55
-27 55 -52 0 -7 6 -10 15 -7 19 8 65 -22 65 -41 0 -8 8 -15 18 -15 27 0 62
-29 62 -51 0 -13 7 -19 23 -19 29 0 54 -19 59 -45 2 -13 13 -22 33 -25 23 -4
32 -12 39 -37 7 -24 16 -33 35 -35 18 -2 31 -13 41 -35 8 -18 24 -33 35 -35
11 -2 27 -17 35 -34 8 -17 27 -36 43 -42 19 -7 29 -20 33 -41 4 -17 12 -31 18
-31 23 0 49 -27 49 -52 0 -18 7 -27 28 -35 21 -8 31 -20 35 -42 4 -17 10 -31
15 -31 18 0 49 -41 49 -65 0 -14 6 -25 13 -25 21 0 49 -36 45 -57 -2 -11 6
-24 24 -35 20 -13 28 -26 28 -47 0 -21 6 -32 20 -36 25 -8 43 -40 35 -64 -4
-12 2 -21 20 -29 24 -11 29 -25 26 -63 -1 -9 10 -24 24 -33 17 -11 25 -25 25
-46 0 -18 10 -39 26 -55 17 -18 23 -31 19 -45 -5 -14 0 -26 16 -39 15 -12 22
-29 22 -52 0 -22 7 -39 20 -48 14 -10 18 -22 15 -46 -3 -24 1 -36 15 -44 14
-9 18 -22 16 -51 -2 -27 2 -44 13 -52 21 -17 27 -38 17 -65 -6 -15 -2 -26 13
-39 16 -15 19 -26 14 -55 -5 -29 -2 -38 10 -43 13 -5 15 -15 11 -50 -5 -35 -3
-45 10 -50 12 -5 14 -16 10 -50 -5 -32 -2 -47 8 -56 18 -15 20 -51 3 -68 -9
-9 -8 -16 5 -30 19 -20 22 -49 8 -71 -6 -10 -5 -22 5 -35 17 -25 18 -58 2 -74
-9 -9 -9 -15 0 -24 14 -14 16 -57 3 -77 -6 -9 -4 -22 6 -37 13 -21 13 -27 -1
-56 -11 -21 -13 -34 -6 -36 13 -5 13 -65 0 -78 -6 -6 -6 -20 2 -41 9 -25 9
-35 -3 -54 -11 -18 -13 -31 -5 -51 7 -20 5 -32 -7 -52 -14 -20 -15 -30 -6 -50
10 -20 9 -30 -4 -50 -11 -16 -14 -36 -11 -58 4 -24 1 -38 -10 -47 -12 -10 -14
-23 -10 -50 5 -29 1 -40 -14 -55 -17 -15 -19 -22 -10 -42 9 -20 8 -29 -9 -52
-14 -19 -19 -37 -16 -56 4 -18 -1 -34 -13 -47 -12 -13 -17 -32 -16 -54 3 -24
-2 -37 -17 -47 -16 -12 -20 -22 -15 -45 5 -24 1 -34 -19 -49 -19 -15 -23 -26
-20 -50 4 -24 -1 -36 -19 -50 -14 -12 -22 -27 -20 -41 4 -29 -15 -63 -35 -63
-11 0 -14 -6 -10 -21 8 -29 -8 -66 -31 -73 -14 -5 -18 -13 -15 -31 4 -17 -2
-31 -21 -48 -14 -13 -26 -34 -26 -46 0 -21 -32 -61 -49 -61 -4 0 -6 -11 -4
-24 4 -18 -3 -30 -26 -47 -17 -12 -31 -32 -31 -43 0 -23 -27 -56 -47 -56 -7 0
-13 -9 -13 -21 0 -31 -19 -59 -40 -59 -14 0 -20 -8 -22 -33 -2 -25 -10 -36
-35 -48 -18 -9 -30 -19 -26 -22 9 -10 -24 -55 -47 -62 -11 -3 -20 -14 -20 -22
0 -22 -29 -53 -50 -53 -12 0 -20 -11 -24 -31 -4 -21 -14 -34 -33 -41 -16 -6
-35 -25 -43 -42 -11 -22 -23 -32 -42 -34 -18 -2 -28 -9 -28 -19 0 -25 -30 -53
-57 -53 -16 0 -23 -6 -23 -19 0 -22 -35 -51 -62 -51 -11 0 -18 -7 -18 -18 0
-26 -20 -42 -52 -42 -18 0 -28 -5 -28 -14 0 -22 -28 -46 -53 -46 -14 0 -28
-11 -39 -30 -13 -23 -24 -30 -48 -30 -20 0 -30 -5 -30 -15 0 -20 -46 -49 -65
-41 -10 4 -19 -2 -25 -18 -9 -25 -29 -36 -65 -36 -15 0 -26 -7 -30 -20 -7 -21
-45 -36 -70 -26 -9 3 -15 0 -15 -9 0 -19 -46 -49 -65 -41 -8 3 -26 -6 -40 -20
-16 -15 -34 -24 -48 -22 -13 1 -32 -7 -45 -20 -12 -12 -33 -22 -47 -22 -20 0
-25 -5 -25 -25 0 -14 -6 -27 -12 -29 -7 -2 -46 -14 -85 -26 -40 -13 -81 -22
-90 -21 -72 8 -120 5 -135 -7 -10 -9 -30 -12 -50 -10 -23 4 -41 -1 -60 -15
-22 -16 -32 -18 -50 -10 -18 8 -29 6 -50 -10 -22 -17 -32 -18 -51 -10 -21 10
-29 7 -60 -21 -21 -18 -35 -35 -34 -37 2 -2 -28 -35 -67 -74 -46 -45 -72 -64
-72 -53 0 9 4 14 8 12 15 -9 2 35 -16 54 -9 11 -30 22 -46 26 -20 4 -28 10
-24 20 3 8 0 17 -7 22 -7 4 -10 3 -5 -4 3 -6 2 -13 -3 -16 -5 -3 -11 3 -14 13
-3 14 -11 17 -30 14 -13 -3 -34 0 -45 6 -14 7 -28 7 -50 -1 -24 -9 -35 -9 -53
4 -21 13 -26 13 -50 -1 -24 -13 -29 -13 -51 1 -16 11 -30 13 -39 7 -22 -14
-56 -11 -74 7 -12 13 -19 14 -28 5 -16 -16 -62 -14 -77 3 -9 12 -17 13 -36 4
-18 -9 -31 -8 -51 2 -16 8 -44 13 -64 11 -22 -1 -40 3 -48 13 -8 10 -23 13
-47 9 -24 -4 -40 -1 -53 11 -12 11 -27 14 -48 10 -23 -4 -36 -1 -50 13 -14 14
-29 18 -55 15 -29 -3 -39 0 -49 16 -10 16 -20 19 -50 15 -30 -4 -40 -1 -50 15
-10 16 -20 19 -40 15 -21 -4 -34 1 -51 18 -16 16 -35 24 -58 24 -24 0 -37 6
-45 20 -6 12 -17 19 -28 17 -32 -6 -65 7 -72 28 -5 15 -12 19 -26 15 -27 -9
-57 3 -64 26 -4 12 -15 19 -31 19 -33 0 -64 17 -64 35 0 9 -10 15 -26 15 -33
0 -64 17 -64 35 0 9 -9 15 -23 15 -28 0 -67 26 -67 46 0 9 -11 14 -30 14 -24
0 -35 7 -48 30 -13 22 -24 30 -45 30 -23 0 -31 6 -40 30 -8 21 -18 30 -33 30
-26 0 -54 24 -54 46 0 8 -10 14 -22 14 -27 0 -58 27 -58 52 0 12 -7 18 -22 18
-26 0 -58 27 -58 50 0 11 -11 20 -30 24 -24 4 -32 12 -36 35 -5 22 -13 30 -34
35 -21 4 -32 14 -41 41 -8 21 -20 35 -30 35 -20 0 -36 18 -41 45 -1 11 -16 27
-33 35 -23 11 -31 23 -33 48 -2 18 -7 30 -13 27 -13 -9 -59 41 -59 65 0 11 -6
20 -13 20 -22 0 -50 37 -44 59 3 14 -2 21 -19 25 -26 7 -47 46 -38 71 4 10 0
15 -15 15 -21 0 -41 27 -41 55 0 9 -13 29 -29 44 -20 19 -28 34 -25 48 4 14
-2 25 -20 37 -20 12 -26 25 -26 51 0 24 -5 35 -15 35 -20 0 -38 37 -32 66 2
13 1 24 -4 24 -17 0 -39 33 -39 59 0 15 -9 36 -20 46 -14 13 -20 29 -18 49 2
23 -3 36 -21 50 -18 15 -22 26 -18 51 4 24 1 34 -15 44 -16 10 -19 20 -15 50
4 30 1 40 -15 50 -16 10 -19 20 -16 49 3 25 -1 41 -14 54 -20 20 -23 45 -9 68
7 10 4 18 -10 28 -20 14 -27 66 -9 77 5 3 1 14 -10 25 -21 21 -25 46 -11 69 6
10 3 23 -10 41 -15 20 -18 32 -11 50 7 18 5 32 -6 48 -13 19 -13 30 -4 54 9
25 8 35 -5 55 -15 23 -15 28 -2 52 13 22 13 29 2 39 -15 15 -18 68 -3 77 7 4
7 12 0 25 -14 25 -13 63 2 78 9 9 9 15 0 24 -17 17 -15 63 3 78 12 10 12 15
-2 37 -16 24 -16 27 0 54 13 23 14 35 5 54 -8 19 -8 29 5 48 10 16 14 37 10
63 -4 28 -1 43 10 52 12 10 13 18 4 42 -10 25 -8 33 10 52 16 17 19 28 13 38
-15 24 -12 48 10 70 17 17 18 24 10 41 -9 16 -8 26 5 45 8 13 19 24 24 24 5 0
4 14 -2 31 -11 28 -10 33 14 53 21 18 24 26 16 44 -7 16 -5 28 7 47 9 14 20
25 24 25 5 0 7 14 4 31 -3 21 2 37 16 52 14 15 19 30 16 44 -4 15 2 30 19 47
17 17 23 32 20 50 -4 18 2 32 21 49 17 16 26 35 26 56 0 24 6 34 25 43 18 8
24 17 19 30 -7 23 21 68 42 68 11 0 13 6 9 20 -8 25 19 70 40 70 10 0 15 11
15 35 0 28 5 38 25 47 15 7 25 20 25 32 0 27 9 40 38 55 12 6 22 21 22 33 0
27 27 58 51 58 12 0 16 5 13 15 -9 21 23 65 46 65 14 0 20 7 20 24 0 27 24 56
45 56 7 0 16 12 19 26 4 14 19 32 34 41 15 9 34 30 42 47 11 22 23 32 43 34
20 3 27 9 27 26 0 27 18 46 44 46 14 0 26 12 36 33 11 23 23 33 43 35 17 2 27
9 27 19 0 25 30 53 57 53 15 0 23 6 23 18 0 26 20 42 51 42 20 0 28 6 33 25 6
24 52 53 64 40 3 -3 13 9 23 25 14 23 26 30 49 30 16 0 30 5 30 12 0 22 33 48
62 48 15 0 28 4 28 9 0 19 32 41 61 41 16 0 29 4 29 9 0 18 32 41 57 41 15 0
33 10 46 26 15 20 27 25 48 22 22 -4 33 1 45 20 13 19 22 23 50 20 26 -3 35 0
40 14 5 18 40 32 65 26 8 -1 25 8 38 21 17 17 30 22 51 18 20 -5 33 0 46 14
14 16 27 20 50 16 23 -4 36 0 48 15 13 15 26 19 49 15 22 -3 40 2 59 16 22 17
32 18 51 10 20 -9 27 -8 40 8 18 21 62 26 72 8 5 -7 14 -3 26 10 21 22 63 28
74 11 4 -6 17 -2 34 11 22 16 32 18 55 10 21 -9 32 -7 52 5 20 13 30 15 49 6
19 -9 31 -8 52 3 35 18 34 18 60 0z m1898 -15 c0 -18 -6 -26 -23 -28 -24 -4
-38 18 -28 44 3 9 15 14 28 12 17 -2 23 -10 23 -28z m612 -6 c15 -24 15 -29 2
-53 -27 -48 -109 -32 -109 22 0 56 76 77 107 31z m-1017 -29 c0 -27 -26 -40
-46 -24 -19 16 -18 36 3 47 24 14 43 4 43 -23z m-2855 -5 c0 -18 -6 -26 -23
-28 -13 -2 -25 3 -28 12 -10 26 4 48 28 44 17 -2 23 -10 23 -28z m250 0 c0
-18 -6 -26 -23 -28 -13 -2 -25 3 -28 12 -10 26 4 48 28 44 17 -2 23 -10 23
-28z m2853 18 c14 -14 -2 -48 -22 -48 -20 0 -37 25 -30 44 7 19 35 21 52 4z
m250 -17 c23 -14 10 -46 -18 -46 -16 0 -26 6 -28 19 -3 16 12 36 28 36 3 0 11
-4 18 -9z m-3608 -26 c0 -31 -26 -43 -46 -23 -20 20 -7 48 22 48 19 0 24 -5
24 -25z m-562 -1 c41 -29 19 -96 -31 -96 -36 0 -57 19 -57 50 0 29 26 62 49
62 9 0 27 -7 39 -16z m972 -18 c0 -8 -7 -19 -15 -26 -28 -23 -60 21 -33 48 14
14 48 -2 48 -22z m2799 16 c12 -22 -3 -42 -30 -42 -22 0 -33 28 -18 46 16 19
36 17 48 -4z m251 -11 c7 -15 6 -23 -5 -35 -28 -27 -69 10 -44 40 16 20 37 17
49 -5z m760 -1 c24 -24 25 -38 4 -68 -18 -26 -60 -29 -86 -5 -22 20 -23 42 -2
71 19 28 57 29 84 2z m-4065 -20 c0 -18 -6 -26 -23 -28 -13 -2 -25 3 -28 12
-10 26 4 48 28 44 17 -2 23 -10 23 -28z m-257 -17 c13 -26 4 -43 -23 -43 -27
0 -40 26 -24 46 16 19 37 17 47 -3z m3410 -16 c3 -23 0 -27 -23 -27 -30 0 -43
24 -25 46 19 22 45 13 48 -19z m410 5 c4 -28 -24 -40 -45 -19 -21 21 -9 49 19
45 15 -2 24 -11 26 -26z m-3410 -8 c4 -27 -26 -40 -46 -20 -21 20 -8 48 20 44
14 -2 24 -11 26 -24z m3250 -1 c13 -26 4 -43 -24 -43 -29 0 -41 24 -24 45 17
20 37 19 48 -2z m-5655 0 c-7 -2 -19 -2 -25 0 -7 3 -2 5 12 5 14 0 19 -2 13
-5z m2155 -21 c4 -28 -24 -40 -45 -19 -21 21 -9 49 19 45 15 -2 24 -11 26 -26z
m-710 6 c17 -17 15 -64 -4 -82 -47 -48 -116 14 -84 75 12 22 68 27 88 7z
m4970 -11 c17 -13 15 -62 -4 -81 -47 -48 -123 23 -81 76 21 28 53 29 85 5z
m-4113 -27 c0 -18 -6 -26 -21 -28 -26 -4 -40 24 -23 45 18 21 44 11 44 -17z
m3203 4 c4 -27 -26 -40 -46 -20 -21 20 -8 48 20 44 14 -2 24 -11 26 -24z m406
3 c8 -12 7 -21 -5 -32 -21 -21 -49 -9 -49 20 0 36 34 44 54 12z m-4010 -2 c8
-23 -4 -45 -25 -45 -22 0 -34 22 -25 45 3 8 14 15 25 15 10 0 21 -7 25 -15z
m156 -20 c15 -18 -2 -45 -30 -45 -23 0 -34 28 -19 46 15 18 33 18 49 -1z
m3698 -11 c4 -27 -26 -40 -46 -20 -21 20 -8 48 20 44 14 -2 24 -11 26 -24z
m-154 -17 c9 -14 7 -21 -7 -32 -25 -18 -47 -9 -47 19 0 40 32 48 54 13z
m-4246 -15 c6 -9 12 -24 12 -34 0 -24 -35 -58 -60 -58 -25 0 -60 34 -60 58 1
53 74 77 108 34z m857 18 c11 -18 -6 -50 -26 -50 -22 0 -34 22 -25 45 6 17 42
20 51 5z m4295 -20 c11 -11 20 -29 20 -40 0 -40 -55 -73 -86 -52 -38 25 -36
78 4 101 25 15 40 13 62 -9z m-4705 -20 c0 -18 -6 -26 -23 -28 -27 -4 -40 22
-22 44 19 22 45 13 45 -16z m4208 18 c6 -18 -11 -48 -27 -48 -20 0 -39 27 -32
45 7 18 52 20 59 3z m-164 -12 c16 -20 3 -46 -24 -46 -13 0 -26 7 -29 16 -7
19 10 44 29 44 7 0 18 -6 24 -14z m-3881 -22 c3 -23 -18 -37 -43 -28 -16 6
-20 35 -8 48 14 14 48 1 51 -20z m3720 4 c17 -17 15 -45 -4 -52 -18 -7 -44 10
-44 28 0 13 20 36 30 36 3 0 11 -5 18 -12z m-3568 -13 c10 -12 10 -18 0 -30
-7 -8 -18 -15 -25 -15 -7 0 -18 7 -25 15 -10 12 -10 18 0 30 7 8 18 15 25 15
7 0 18 -7 25 -15z m-854 -50 c20 -31 4 -72 -32 -81 -34 -9 -56 5 -69 41 -8 23
-6 30 17 50 32 27 62 23 84 -10z m4833 21 c15 -18 3 -46 -20 -46 -22 0 -34 22
-25 45 7 19 30 19 45 1z m-4382 -16 c5 -26 -13 -43 -36 -35 -20 6 -28 34 -14
49 12 12 48 2 50 -14z m4228 -10 c0 -18 -6 -26 -23 -28 -24 -4 -38 18 -28 44
3 9 15 14 28 12 17 -2 23 -10 23 -28z m-4069 5 c7 -18 -13 -45 -33 -45 -17 0
-27 24 -19 45 7 20 45 19 52 0z m4738 -18 c17 -48 -23 -88 -71 -71 -22 7 -29
17 -31 42 -5 45 13 64 57 60 29 -2 38 -8 45 -31z m-4600 17 c19 -7 21 -50 4
-57 -18 -6 -48 11 -48 26 0 7 5 18 12 25 14 14 12 14 32 6z m3774 -22 c4 -28
-24 -40 -45 -19 -21 21 -9 49 19 45 15 -2 24 -11 26 -26z m-4164 -45 c16 -25
-16 -56 -38 -37 -19 15 -20 32 -4 48 15 15 28 11 42 -11z m4406 8 c18 -21 5
-45 -25 -45 -40 0 -34 54 6 59 4 1 12 -6 19 -14z m160 0 c10 -12 10 -18 0 -30
-7 -8 -18 -15 -25 -15 -7 0 -18 7 -25 15 -10 12 -10 18 0 30 7 8 18 15 25 15
7 0 18 -7 25 -15z m-4405 -5 c11 -18 -6 -50 -26 -50 -22 0 -34 22 -25 45 6 17
42 20 51 5z m4095 -25 c0 -27 -26 -40 -46 -24 -19 16 -18 36 3 47 24 14 43 4
43 -23z m-4710 5 c11 -11 20 -27 20 -35 0 -17 -43 -65 -58 -65 -19 0 -62 42
-62 61 0 25 35 59 60 59 11 0 29 -9 40 -20z m769 2 c12 -22 -3 -42 -30 -42
-22 0 -33 28 -18 46 16 19 36 17 48 -4z m4751 -12 c31 -31 25 -67 -15 -87 -34
-18 -85 16 -85 56 0 18 39 51 60 51 11 0 29 -9 40 -20z m-5002 -42 c17 -17 15
-45 -4 -52 -18 -7 -44 10 -44 28 0 13 20 36 30 36 3 0 11 -5 18 -12z m4276
-11 c8 -12 7 -21 -5 -32 -21 -21 -49 -9 -49 20 0 36 34 44 54 12z m154 11 c14
-14 -2 -48 -22 -48 -20 0 -37 25 -30 44 7 19 35 21 52 4z m157 -18 c0 -18 -6
-26 -21 -28 -23 -3 -37 18 -27 44 10 25 48 13 48 -16z m-4737 -6 c4 -27 -26
-40 -46 -20 -21 20 -8 48 20 44 14 -2 24 -11 26 -24z m311 12 c15 -18 3 -46
-20 -46 -22 0 -34 22 -25 45 7 19 30 19 45 1z m-765 -32 c20 -20 20 -58 0 -78
-34 -34 -94 -9 -94 39 0 30 25 55 55 55 13 0 31 -7 39 -16z m5690 -10 c19 -18
21 -65 4 -82 -31 -31 -98 -3 -98 40 0 49 61 76 94 42z m-5164 -29 c18 -21 5
-45 -25 -45 -40 0 -34 54 6 59 4 1 12 -6 19 -14z m160 -20 c0 -27 -17 -36 -42
-23 -23 11 -23 34 -1 46 24 14 43 4 43 -23z m4275 5 c0 -29 -38 -41 -48 -16
-10 26 4 47 27 44 15 -2 21 -10 21 -28z m161 15 c7 -18 -13 -45 -33 -45 -17 0
-27 24 -19 45 7 20 45 19 52 0z m158 -9 c9 -13 7 -20 -7 -31 -25 -18 -47 -8
-47 20 0 37 34 44 54 11z m-4909 -16 c0 -18 -6 -26 -23 -28 -13 -2 -25 3 -28
12 -10 26 4 48 28 44 17 -2 23 -10 23 -28z m-453 -37 c38 -34 12 -93 -41 -93
-36 0 -51 17 -51 57 0 49 54 71 92 36z m5128 -28 c0 -27 -17 -36 -42 -23 -23
11 -23 34 -1 46 24 14 43 4 43 -23z m721 25 c22 -12 27 -68 7 -88 -20 -20 -76
-15 -88 7 -31 59 22 112 81 81z m-5317 -25 c7 -19 -20 -46 -39 -39 -21 8 -26
32 -9 48 16 17 40 12 48 -9z m151 -5 c0 -20 -5 -25 -25 -25 -28 0 -41 32 -18
46 23 15 43 5 43 -21z m4600 0 c0 -18 -6 -26 -23 -28 -24 -4 -38 18 -28 44 3
9 15 14 28 12 17 -2 23 -10 23 -28z m155 5 c17 -20 5 -45 -20 -45 -23 0 -35
22 -26 45 7 19 30 19 46 0z m-5066 -11 c7 -19 -10 -44 -31 -44 -17 0 -27 24
-19 45 7 20 42 19 50 -1z m4820 -40 c9 -3 16 -17 16 -30 0 -19 -5 -24 -25 -24
-30 0 -43 24 -25 45 14 17 13 17 34 9z m-5276 -20 c32 -22 27 -73 -9 -93 -24
-13 -29 -13 -53 2 -34 22 -36 69 -4 91 28 20 38 20 66 0z m687 -14 c0 -18 -6
-26 -21 -28 -23 -3 -37 18 -27 44 10 25 48 13 48 -16z m4755 15 c18 -21 5 -47
-22 -43 -26 3 -37 36 -16 49 18 12 24 11 38 -6z m-4910 -10 c10 -12 10 -18 0
-30 -25 -30 -61 -7 -46 30 3 8 12 15 19 15 8 0 20 -7 27 -15z m5478 -1 c32
-22 27 -73 -9 -93 -24 -13 -29 -13 -53 2 -34 22 -36 69 -4 91 28 20 38 20 66
0z m-409 -8 c15 -18 3 -46 -20 -46 -22 0 -34 22 -25 45 7 19 30 19 45 1z
m-5221 -23 c3 -22 -28 -40 -48 -28 -12 7 -13 38 -3 49 15 14 48 1 51 -21z
m4992 -47 c0 -8 -7 -19 -15 -26 -28 -23 -60 21 -33 48 14 14 48 -2 48 -22z
m-4761 10 c15 -18 3 -46 -20 -46 -22 0 -34 22 -25 45 7 19 30 19 45 1z m4911
-11 c10 -12 10 -18 0 -30 -7 -8 -18 -15 -25 -15 -7 0 -18 7 -25 15 -10 12 -10
18 0 30 7 8 18 15 25 15 7 0 18 -7 25 -15z m-5062 -23 c4 -28 -24 -40 -45 -19
-21 21 -9 49 19 45 15 -2 24 -11 26 -26z m-521 -8 c15 -24 15 -29 2 -53 -11
-20 -22 -26 -49 -26 -27 0 -38 6 -49 26 -13 24 -13 29 2 53 12 18 26 26 47 26
21 0 35 -8 47 -26z m5727 20 c19 -7 21 -35 4 -52 -7 -7 -17 -8 -30 -1 -21 11
-23 30 -6 47 14 14 12 14 32 6z m-5365 -22 c7 -13 6 -23 -1 -30 -26 -26 -64
-2 -47 30 5 10 16 18 24 18 8 0 19 -8 24 -18z m5791 -2 c24 -24 25 -38 4 -68
-29 -42 -104 -17 -104 35 0 20 38 53 60 53 11 0 29 -9 40 -20z m-5546 -45 c5
-14 -18 -45 -33 -45 -9 0 -31 22 -31 31 0 4 7 14 15 23 17 17 40 12 49 -9z
m4891 -5 c0 -18 -6 -26 -21 -28 -23 -3 -37 18 -27 44 10 25 48 13 48 -16z
m159 -5 c8 -23 -4 -45 -25 -45 -22 0 -34 22 -25 45 3 8 14 15 25 15 10 0 21
-7 25 -15z m-5207 -11 c8 -21 -19 -46 -40 -38 -17 6 -23 35 -10 47 12 13 44 7
50 -9z m5361 -32 c4 -28 -24 -41 -44 -20 -20 20 -7 50 20 46 13 -2 22 -12 24
-26z m-5882 -7 c22 -33 6 -72 -32 -81 -33 -8 -56 5 -68 39 -21 58 66 94 100
42z m364 1 c0 -29 -28 -42 -48 -22 -20 20 -8 46 23 46 20 0 25 -5 25 -24z
m5937 -12 c15 -24 15 -29 2 -53 -11 -20 -22 -26 -49 -26 -27 0 -38 6 -49 26
-13 24 -13 29 2 53 12 18 26 26 47 26 21 0 35 -8 47 -26z m-5702 -24 c0 -18
-6 -26 -23 -28 -27 -4 -40 22 -22 44 19 22 45 13 45 -16z m5045 6 c0 -29 -28
-42 -48 -22 -20 20 -8 46 23 46 20 0 25 -5 25 -24z m149 -10 c15 -18 3 -46
-20 -46 -22 0 -34 22 -25 45 7 19 30 19 45 1z m-5341 -20 c5 -25 -12 -39 -37
-31 -20 6 -28 34 -14 49 13 13 48 1 51 -18z m-158 -25 c7 -15 6 -23 -6 -35 -8
-9 -17 -16 -19 -16 -2 0 -11 7 -19 16 -18 18 -6 54 19 54 8 0 19 -9 25 -19z
m5658 -7 c4 -27 -26 -40 -46 -20 -21 20 -8 48 20 44 14 -2 24 -11 26 -24z
m-6026 -11 c36 -32 10 -93 -40 -93 -50 0 -76 46 -52 91 13 24 66 26 92 2z
m5782 -6 c16 -25 -16 -56 -38 -37 -19 15 -20 32 -4 48 15 15 28 11 42 -11z
m-5175 -1 c15 -18 3 -46 -20 -46 -22 0 -34 22 -25 45 7 19 30 19 45 1z m5825
-2 c34 -33 12 -94 -34 -94 -53 0 -79 53 -43 92 20 22 56 23 77 2z m-496 -43
c-4 -31 -35 -36 -52 -8 -9 14 -7 21 7 32 27 19 49 8 45 -24z m-5480 12 c13
-26 4 -43 -23 -43 -27 0 -40 26 -24 46 16 19 37 17 47 -3z m5642 -47 c0 -20
-25 -37 -44 -30 -19 7 -22 50 -3 57 17 6 47 -11 47 -27z m-5802 15 c21 -13 10
-46 -16 -49 -27 -4 -40 22 -22 43 14 17 20 18 38 6z m247 -41 c0 -18 -6 -26
-23 -28 -27 -4 -40 22 -22 44 19 22 45 13 45 -16z m5308 18 c6 -18 -11 -48
-27 -48 -20 0 -37 25 -30 44 7 19 50 22 57 4z m-5913 -18 c27 -27 25 -46 -5
-76 -19 -18 -31 -23 -48 -19 -27 8 -47 33 -47 57 0 24 35 58 60 58 11 0 29 -9
40 -20z m6554 -11 c14 -11 26 -28 26 -37 0 -22 -40 -62 -62 -62 -24 0 -58 35
-58 60 0 23 33 60 54 60 7 0 25 -9 40 -21z m-495 -3 c17 -20 3 -46 -25 -46
-18 0 -24 5 -24 23 0 38 26 50 49 23z m-5604 -26 c0 -18 -6 -26 -23 -28 -24
-4 -38 18 -28 44 3 9 15 14 28 12 17 -2 23 -10 23 -28z m-145 -44 c0 -20 -25
-37 -44 -30 -19 7 -21 35 -4 52 14 14 48 -2 48 -22z m5906 19 c7 -18 -13 -45
-33 -45 -17 0 -27 24 -19 45 7 20 45 19 52 0z m-246 -10 c10 -12 10 -18 0 -30
-25 -30 -67 -7 -49 27 12 22 32 23 49 3z m-5422 -23 c4 -28 -24 -41 -44 -20
-20 20 -7 50 20 46 13 -2 22 -12 24 -26z m-598 -23 c16 -28 3 -74 -23 -86
l-21 -10 24 -24 c14 -13 32 -37 40 -53 8 -16 30 -38 48 -49 31 -18 42 -37 22
-37 -5 0 -19 -18 -30 -40 -28 -55 -57 -82 -87 -82 -16 0 -28 -9 -35 -24 -12
-26 -48 -33 -48 -10 0 7 -7 19 -15 26 -12 10 -15 10 -15 -4 0 -23 -36 -56 -62
-56 -58 0 -78 73 -30 110 15 12 20 18 12 14 -13 -7 -13 -5 -1 9 12 15 11 17
-8 17 -12 0 -20 4 -16 9 3 6 -16 12 -42 16 -131 16 -154 29 -75 39 93 13 142
28 142 43 0 9 6 13 15 9 10 -4 21 7 35 34 24 48 48 62 92 55 28 -5 30 -4 10 4
-62 28 -45 111 23 111 24 0 37 -6 45 -21z m6169 7 c15 -18 3 -46 -20 -46 -22
0 -34 22 -25 45 7 19 30 19 45 1z m-5724 -26 c0 -33 -40 -41 -50 -11 -9 28 2
43 28 39 16 -2 22 -10 22 -28z m6219 17 c21 -16 24 -60 6 -82 -16 -20 -59 -19
-82 2 -52 47 19 122 76 80z m-584 -62 c0 -27 -26 -40 -46 -24 -19 16 -18 36 3
47 24 14 43 4 43 -23z m240 20 c17 -20 5 -45 -20 -45 -23 0 -35 22 -26 45 7
19 30 19 46 0z m-6025 -25 c0 -18 -6 -26 -23 -28 -24 -4 -38 18 -28 44 3 9 15
14 28 12 17 -2 23 -10 23 -28z m243 13 c13 -26 4 -43 -23 -43 -27 0 -40 26
-24 46 16 19 37 17 47 -3z m5680 -32 c21 -13 10 -46 -16 -49 -27 -4 -40 22
-22 43 14 17 20 18 38 6z m-5828 -16 c10 -12 10 -18 0 -30 -25 -30 -67 -7 -49
27 12 22 32 23 49 3z m6334 -21 c20 -20 20 -43 0 -72 -16 -24 -44 -28 -75 -12
-22 12 -27 68 -7 88 17 17 64 15 82 -4z m-594 -19 c17 -20 5 -45 -20 -45 -23
0 -35 22 -26 45 7 19 30 19 46 0z m-5645 -25 c0 -18 -6 -26 -23 -28 -24 -4
-38 18 -28 44 3 9 15 14 28 12 17 -2 23 -10 23 -28z m5890 0 c0 -18 -6 -26
-23 -28 -24 -4 -38 18 -28 44 3 9 15 14 28 12 17 -2 23 -10 23 -28z m-6128 4
c8 -21 -19 -46 -40 -38 -9 3 -17 17 -17 30 0 19 5 24 25 24 14 0 28 -7 32 -16z
m6037 -39 c7 -20 -17 -47 -36 -40 -24 9 -29 32 -12 49 16 17 40 12 48 -9z
m-5946 -18 c3 -23 0 -27 -21 -27 -29 0 -43 26 -26 47 18 21 44 11 47 -20z
m5842 -22 c17 -20 5 -45 -20 -45 -23 0 -35 22 -26 45 7 19 30 19 46 0z m594
-1 c48 -47 -14 -116 -75 -84 -22 12 -27 68 -7 88 17 17 64 15 82 -4z m-6339
-24 c0 -18 -6 -26 -23 -28 -13 -2 -25 3 -28 12 -10 26 4 48 28 44 17 -2 23
-10 23 -28z m-244 4 c9 -11 10 -20 3 -32 -15 -23 -29 -25 -48 -7 -12 12 -13
21 -6 36 13 23 33 25 51 3z m6237 -10 c4 -27 -26 -40 -46 -20 -21 20 -8 48 20
44 14 -2 24 -11 26 -24z m-100 -42 c4 -28 -24 -41 -44 -20 -20 20 -7 50 20 46
13 -2 22 -12 24 -26z m-6034 2 c7 -19 -10 -44 -29 -44 -19 0 -36 25 -29 44 3
9 16 16 29 16 13 0 26 -7 29 -16z m5936 -33 c7 -15 6 -23 -6 -35 -8 -9 -17
-16 -19 -16 -2 0 -11 7 -19 16 -18 18 -6 54 19 54 8 0 19 -9 25 -19z m-5845
-21 c0 -18 -6 -26 -21 -28 -26 -4 -40 24 -23 45 18 21 44 11 44 -17z m6089 -3
c16 -25 -16 -56 -38 -37 -19 15 -20 32 -4 48 15 15 28 11 42 -11z m346 8 c7
-8 13 -26 13 -40 0 -35 -20 -55 -54 -55 -28 0 -59 30 -59 59 0 42 73 68 100
36z m-6682 -4 c23 -14 10 -46 -18 -46 -16 0 -26 6 -28 19 -3 16 12 36 28 36 3
0 11 -4 18 -9z m106 -53 c15 -24 -10 -51 -35 -37 -22 11 -24 30 -7 47 15 15
28 11 42 -10z m6133 6 c8 -21 -19 -46 -40 -38 -17 6 -23 35 -10 47 12 13 44 7
50 -9z m-6037 -39 c17 -20 5 -45 -20 -45 -11 0 -23 7 -26 15 -6 15 11 45 26
45 4 0 13 -7 20 -15z m5937 -1 c8 -21 -19 -46 -40 -38 -17 6 -23 35 -10 47 12
13 44 7 50 -9z m-6479 -17 c17 -13 15 -62 -4 -81 -47 -48 -123 23 -81 76 21
28 53 29 85 5z m306 -20 c8 -12 7 -21 -5 -32 -21 -21 -49 -9 -49 20 0 36 34
44 54 12z m6414 -3 c4 -27 -26 -40 -46 -20 -21 20 -8 48 20 44 14 -2 24 -11
26 -24z m346 4 c20 -29 20 -47 -1 -70 -23 -25 -68 -23 -87 4 -21 30 -20 44 4
68 27 27 65 26 84 -2z m-454 -23 c17 -20 5 -45 -20 -45 -11 0 -23 7 -26 15 -6
15 11 45 26 45 4 0 13 -7 20 -15z m-6205 -25 c0 -18 -6 -26 -23 -28 -24 -4
-38 18 -28 44 3 9 15 14 28 12 17 -2 23 -10 23 -28z m6110 -30 c0 -18 -6 -26
-23 -28 -13 -2 -25 3 -28 12 -10 26 4 48 28 44 17 -2 23 -10 23 -28z m-6007
-4 c5 -25 -12 -39 -37 -31 -20 6 -28 34 -14 49 13 13 48 1 51 -18z m-557 -16
c29 -16 26 -75 -5 -95 -56 -37 -115 36 -69 87 18 20 45 23 74 8z m6804 -20 c0
-18 -6 -26 -23 -28 -13 -2 -25 3 -28 12 -10 26 4 48 28 44 17 -2 23 -10 23
-28z m-6487 -4 c5 -25 -12 -39 -37 -31 -20 6 -28 34 -14 49 13 13 48 1 51 -18z
m6841 -1 c27 -26 -9 -95 -50 -95 -25 0 -59 35 -59 60 0 33 37 63 68 55 15 -3
33 -12 41 -20z m171 5 c-8 -5 -35 -9 -60 -9 -41 1 -42 2 -15 9 17 4 44 8 60 9
23 0 26 -2 15 -9z m-630 -15 c16 -19 4 -54 -18 -50 -9 2 -20 4 -24 4 -10 1
-10 45 -1 54 11 11 30 8 43 -8z m-6285 -25 c0 -16 -6 -26 -19 -28 -25 -5 -39
12 -31 38 10 31 50 24 50 -10z m89 -6 c19 -7 21 -50 4 -57 -18 -6 -48 11 -48
26 0 7 5 18 12 25 14 14 12 14 32 6z m6103 -10 c8 -22 -21 -49 -44 -39 -10 5
-21 7 -25 7 -4 -1 -2 9 4 23 13 29 55 35 65 9z m231 -41 c13 -26 4 -43 -23
-43 -27 0 -40 26 -24 46 16 19 37 17 47 -3z m-6860 -21 c42 -53 -35 -124 -83
-76 -24 24 -16 76 14 90 27 14 50 9 69 -14z m301 14 c16 -20 3 -46 -24 -46
-27 0 -36 17 -23 43 10 20 31 22 47 3z m6449 -15 c21 -13 10 -46 -16 -49 -27
-4 -40 22 -22 43 14 17 20 18 38 6z m454 -8 c10 -9 18 -24 18 -34 0 -13 5 -17
18 -13 24 8 -26 -34 -56 -46 -36 -15 -46 -12 -65 19 -37 62 32 122 85 74z
m-6802 -8 c17 -20 5 -45 -20 -45 -23 0 -35 22 -26 45 7 19 30 19 46 0z m6925
-5 c-3 -5 -12 -10 -18 -10 -7 0 -6 4 3 10 19 12 23 12 15 0z m-675 -15 c18
-21 5 -47 -22 -43 -26 3 -37 36 -16 49 18 12 24 11 38 -6z m-6145 -25 c0 -18
-6 -26 -23 -28 -24 -4 -38 18 -28 44 3 9 15 14 28 12 17 -2 23 -10 23 -28z
m6385 -35 c10 -12 10 -18 0 -30 -25 -30 -61 -7 -46 30 3 8 12 15 19 15 8 0 20
-7 27 -15z m-6617 -7 c6 -18 -11 -48 -28 -48 -17 0 -34 30 -28 48 3 6 15 12
28 12 13 0 25 -6 28 -12z m-315 -14 c28 -19 29 -57 2 -84 -24 -24 -38 -25 -68
-4 -14 10 -22 26 -22 44 0 28 30 60 55 60 6 0 21 -7 33 -16z m6816 10 c19 -7
21 -35 4 -52 -7 -7 -17 -8 -30 -1 -21 11 -23 30 -6 47 14 14 12 14 32 6z
m-6404 -19 c17 -20 5 -45 -20 -45 -23 0 -35 22 -26 45 7 19 30 19 46 0z m6309
-19 c15 -18 3 -46 -20 -46 -22 0 -34 22 -25 45 7 19 30 19 45 1z m-6201 -24
c4 -28 -24 -40 -45 -19 -21 21 -9 49 19 45 15 -2 24 -11 26 -26z m6432 -32
c13 -7 17 -16 13 -28 -9 -25 -24 -32 -45 -21 -21 11 -23 30 -6 47 15 15 15 15
38 2z m-6670 -15 c17 -20 5 -45 -20 -45 -23 0 -35 22 -26 45 7 19 30 19 46 0z
m110 -40 c0 -27 -17 -36 -42 -23 -23 11 -23 34 -1 46 24 14 43 4 43 -23z
m6469 13 c7 -18 4 -25 -12 -31 -11 -4 -27 -5 -34 -3 -14 6 -18 38 -6 49 14 15
44 6 52 -15z m-6879 -8 c24 -24 25 -38 4 -68 -22 -32 -73 -27 -93 9 -13 24
-13 29 2 53 21 32 59 34 87 6z m6768 -18 c4 -28 -24 -41 -44 -20 -20 20 -7 50
20 46 13 -2 22 -12 24 -26z m-6252 3 c7 -18 -13 -45 -33 -45 -17 0 -27 24 -19
45 7 20 45 19 52 0z m6664 -40 c-7 -8 -18 -15 -24 -15 -6 0 -2 7 8 15 25 19
32 19 16 0z m-180 -20 c10 -12 10 -18 0 -30 -25 -30 -61 -7 -46 30 3 8 12 15
19 15 8 0 20 -7 27 -15z m-6720 -10 c10 -12 10 -18 0 -30 -7 -8 -18 -15 -25
-15 -7 0 -18 7 -25 15 -10 12 -10 18 0 30 7 8 18 15 25 15 7 0 18 -7 25 -15z
m6615 -25 c0 -18 -6 -26 -23 -28 -13 -2 -25 3 -28 12 -10 26 4 48 28 44 17 -2
23 -10 23 -28z m-6507 -4 c5 -25 -12 -39 -37 -31 -20 6 -28 34 -14 49 13 13
48 1 51 -18z m6400 -14 c4 -28 -24 -41 -44 -20 -20 20 -7 50 20 46 13 -2 22
-12 24 -26z m-6810 6 c22 -29 23 -57 3 -77 -54 -54 -135 15 -84 71 18 21 66
24 81 6z m516 -5 c8 -21 -17 -48 -38 -40 -9 4 -16 18 -16 32 0 20 5 25 24 25
13 0 27 -8 30 -17z m6840 -12 c25 -27 17 -72 -15 -90 -24 -13 -29 -13 -53 2
-17 12 -26 26 -26 44 0 55 59 83 94 44z m-310 -57 c7 -18 -10 -44 -28 -44 -24
0 -38 18 -31 39 8 25 50 29 59 5z m-6760 -11 c8 -21 -17 -48 -38 -40 -9 4 -16
18 -16 32 0 20 5 25 24 25 13 0 27 -8 30 -17z m6650 -6 c8 -12 7 -21 -5 -32
-21 -21 -49 -9 -49 20 0 36 34 44 54 12z m-6544 -6 c14 -28 -13 -55 -41 -41
-22 12 -25 30 -7 48 18 18 36 15 48 -7z m6438 -19 c4 -28 -24 -40 -45 -19 -21
21 -9 49 19 45 15 -2 24 -11 26 -26z m-6333 -12 c0 -18 -6 -26 -23 -28 -24 -4
-38 18 -28 44 3 9 15 14 28 12 17 -2 23 -10 23 -28z m-511 -6 c33 -32 7 -94
-40 -94 -48 0 -73 59 -42 98 15 17 63 15 82 -4z m7386 -14 c24 -24 25 -38 4
-68 -29 -42 -104 -17 -104 35 0 20 38 53 60 53 11 0 29 -9 40 -20z m-7106 -46
c19 -19 4 -57 -21 -52 -26 5 -39 34 -24 52 17 20 26 20 45 0z m171 -7 c38 14
72 -41 42 -66 -15 -11 -16 -38 -3 -59 13 -22 -4 -52 -29 -52 -13 0 -27 5 -30
10 -4 6 -26 8 -56 4 -41 -6 -49 -4 -49 10 0 9 -6 16 -12 16 -9 0 -8 4 2 10 13
8 12 10 -4 10 -11 0 -17 3 -14 6 3 3 3 17 -1 32 -6 21 -2 32 16 50 13 12 23
27 23 32 0 14 63 17 84 3 10 -6 24 -9 31 -6z m6622 7 c8 -21 -19 -46 -40 -38
-17 6 -23 35 -10 47 12 13 44 7 50 -9z m-109 -22 c4 -28 -24 -40 -45 -19 -21
21 -9 49 19 45 15 -2 24 -11 26 -26z m-102 3 c8 -20 -13 -45 -38 -45 -24 0
-34 26 -18 45 16 19 49 19 56 0z m-6893 -36 c42 -23 49 -57 17 -89 -34 -34
-80 -20 -95 27 -4 17 1 29 19 48 29 29 30 29 59 14z m7429 -26 c10 -9 18 -25
18 -36 0 -54 -76 -78 -105 -33 -37 56 36 115 87 69z m-7123 -37 c23 -28 -17
-68 -45 -45 -17 14 -18 31 -2 47 16 16 33 15 47 -2z m6696 -16 c0 -18 -6 -26
-23 -28 -27 -4 -40 22 -22 44 19 22 45 13 45 -16z m112 14 c3 -8 -2 -23 -11
-32 -15 -15 -17 -15 -32 0 -21 21 -11 48 16 48 11 0 23 -7 27 -16z m-217 -9
c10 -12 10 -18 0 -30 -7 -8 -18 -15 -25 -15 -7 0 -18 7 -25 15 -10 12 -10 18
0 30 7 8 18 15 25 15 7 0 18 -7 25 -15z m-6882 -73 c27 -35 -1 -92 -47 -92
-24 0 -51 32 -51 61 0 52 65 73 98 31z m7422 -7 c7 -8 13 -26 13 -40 0 -51
-56 -74 -95 -38 -22 20 -23 42 -2 71 18 26 65 30 84 7z m-321 -19 c17 -20 3
-46 -25 -46 -39 0 -32 54 7 59 4 1 12 -5 18 -13z m-6820 -10 c17 -20 3 -46
-25 -46 -18 0 -24 5 -24 23 0 38 26 50 49 23z m6606 -16 c0 -18 -6 -26 -23
-28 -27 -4 -40 22 -22 44 19 22 45 13 45 -16z m111 15 c7 -18 -13 -45 -33 -45
-17 0 -27 24 -19 45 7 20 45 19 52 0z m-6606 -20 c0 -31 -26 -43 -47 -22 -21
21 -9 47 22 47 20 0 25 -5 25 -25z m105 -5 c0 -18 -6 -26 -23 -28 -24 -4 -38
18 -28 44 3 9 15 14 28 12 17 -2 23 -10 23 -28z m-505 -60 c11 -11 20 -29 20
-40 0 -40 -55 -73 -86 -52 -38 25 -36 78 4 101 25 15 40 13 62 -9z m7437 -26
c15 -24 15 -29 2 -53 -11 -20 -22 -26 -49 -26 -27 0 -38 6 -49 26 -13 24 -13
29 2 53 12 18 26 26 47 26 21 0 35 -8 47 -26z m-553 10 c9 -3 16 -17 16 -30 0
-19 -5 -24 -25 -24 -30 0 -43 24 -25 45 14 17 13 17 34 9z m114 -3 c21 -13 10
-46 -16 -49 -27 -4 -40 22 -22 43 14 17 20 18 38 6z m112 -6 c18 -21 5 -47
-22 -43 -26 3 -37 36 -16 49 18 12 24 11 38 -6z m-6825 -25 c0 -18 -6 -26 -21
-28 -26 -4 -40 24 -23 45 18 21 44 11 44 -17z m110 0 c0 -18 -6 -26 -23 -28
-27 -4 -40 22 -22 44 19 22 45 13 45 -16z m105 15 c17 -20 5 -45 -20 -45 -23
0 -35 22 -26 45 7 19 30 19 46 0z m-502 -91 c32 -22 27 -73 -9 -93 -24 -13
-29 -13 -53 2 -34 22 -36 69 -4 91 28 20 38 20 66 0z m502 -19 c17 -20 5 -45
-20 -45 -11 0 -23 7 -26 15 -6 15 11 45 26 45 4 0 13 -7 20 -15z m6398 -11 c4
-27 -26 -40 -46 -20 -21 20 -8 48 20 44 14 -2 24 -11 26 -24z m107 -4 c0 -18
-6 -26 -23 -28 -13 -2 -25 3 -28 12 -10 26 4 48 28 44 17 -2 23 -10 23 -28z
m104 16 c15 -18 3 -46 -20 -46 -22 0 -34 22 -25 45 7 19 30 19 45 1z m319 2
c20 -20 15 -76 -7 -88 -41 -22 -91 2 -91 43 0 45 67 76 98 45z m-7139 -12 c15
-18 3 -46 -20 -46 -22 0 -34 22 -25 45 7 19 30 19 45 1z m109 -14 c4 -28 -24
-41 -44 -20 -20 20 -7 50 20 46 13 -2 22 -12 24 -26z m-380 -100 c18 -23 15
-49 -8 -72 -44 -44 -110 -4 -93 58 10 40 73 49 101 14z m502 -7 c0 -17 -30
-34 -47 -28 -7 3 -13 15 -13 28 0 13 6 25 13 28 17 6 47 -11 47 -28z m6374 18
c8 -21 -17 -48 -38 -40 -9 4 -16 18 -16 32 0 20 5 25 24 25 13 0 27 -8 30 -17z
m106 -19 c0 -19 -5 -24 -25 -24 -32 0 -45 28 -21 46 24 17 46 7 46 -22z
m-6600 11 c18 -21 5 -47 -22 -43 -26 3 -37 36 -16 49 18 12 24 11 38 -6z
m6705 -15 c0 -18 -6 -26 -23 -28 -24 -4 -38 18 -28 44 3 9 15 14 28 12 17 -2
23 -10 23 -28z m-6810 -10 c0 -18 -6 -26 -21 -28 -26 -4 -40 24 -23 45 18 21
44 11 44 -17z m7130 10 c35 -39 -6 -99 -59 -86 -15 4 -32 17 -38 31 -26 57 55
102 97 55z m-541 -86 c7 -19 -10 -44 -31 -44 -17 0 -27 24 -19 45 7 20 42 19
50 -1z m-6360 -11 c9 -21 -16 -46 -37 -37 -9 3 -17 17 -17 30 0 19 5 24 24 24
13 0 27 -8 30 -17z m6464 -11 c4 -28 -24 -41 -44 -20 -20 20 -7 50 20 46 13
-2 22 -12 24 -26z m-6968 -2 c11 -11 20 -29 20 -40 0 -21 -33 -60 -51 -60 -41
0 -76 49 -58 83 23 42 57 49 89 17z m397 4 c3 -8 -2 -23 -11 -32 -15 -15 -17
-15 -32 0 -21 21 -11 48 16 48 11 0 23 -7 27 -16z m6678 -14 c0 -18 -6 -26
-23 -28 -13 -2 -25 3 -28 12 -10 26 4 48 28 44 17 -2 23 -10 23 -28z m-6787
-8 c4 -28 -24 -41 -44 -20 -20 20 -7 50 20 46 13 -2 22 -12 24 -26z m7108 -7
c21 -33 6 -71 -31 -81 -34 -8 -53 0 -67 30 -16 36 11 76 52 76 21 0 35 -8 46
-25z m-548 -73 c4 -28 -24 -41 -44 -20 -20 20 -7 50 20 46 13 -2 22 -12 24
-26z m-6330 -8 c3 -23 -18 -37 -43 -28 -16 6 -20 35 -8 48 14 14 48 1 51 -20z
m6432 11 c18 -21 5 -47 -22 -43 -26 3 -37 36 -16 49 18 12 24 11 38 -6z
m-6541 -13 c12 -22 -3 -42 -30 -42 -22 0 -33 28 -18 46 16 19 36 17 48 -4z
m6651 -7 c10 -12 10 -18 0 -30 -17 -20 -37 -19 -49 3 -18 34 24 57 49 27z
m-7046 -14 c25 -27 17 -72 -15 -90 -24 -13 -29 -13 -53 2 -17 12 -26 26 -26
44 0 55 59 83 94 44z m293 3 c8 -21 -19 -46 -40 -38 -17 6 -23 35 -10 47 12
13 44 7 50 -9z m7078 -38 c11 -33 -2 -57 -38 -70 -37 -13 -69 16 -65 58 6 59
83 68 103 12z m-551 -32 c7 -19 -10 -44 -31 -44 -17 0 -27 24 -19 45 7 20 42
19 50 -1z m-6297 -10 c8 -21 -19 -46 -40 -38 -17 6 -23 35 -10 47 12 13 44 7
50 -9z m6401 -20 c4 -27 -26 -40 -46 -20 -21 20 -8 48 20 44 14 -2 24 -11 26
-24z m-6510 -10 c4 -27 -26 -40 -46 -20 -21 20 -8 48 20 44 14 -2 24 -11 26
-24z m-98 -19 c0 -17 -30 -34 -47 -28 -7 3 -13 15 -13 28 0 13 6 25 13 28 17
6 47 -11 47 -28z m6717 19 c8 -21 -19 -46 -40 -38 -17 6 -23 35 -10 47 12 13
44 7 50 -9z m-7016 -14 c13 -7 19 -21 19 -43 0 -41 -15 -57 -55 -57 -37 0 -55
16 -55 49 0 49 46 75 91 51z m7319 -20 c11 -11 20 -29 20 -40 0 -22 -33 -60
-53 -60 -27 0 -57 31 -57 60 0 18 8 34 22 44 30 21 44 20 68 -4z m-542 -32 c7
-7 8 -17 1 -30 -12 -22 -32 -23 -49 -3 -23 28 21 60 48 33z m-6252 -13 c7 -18
-13 -45 -33 -45 -17 0 -27 24 -19 45 7 20 45 19 52 0z m6359 -25 c0 -18 -6
-26 -23 -28 -13 -2 -25 3 -28 12 -10 26 4 48 28 44 17 -2 23 -10 23 -28z
m-6467 -8 c4 -28 -24 -40 -45 -19 -14 13 -14 19 -3 32 18 22 44 15 48 -13z
m6570 -15 c3 -23 0 -27 -22 -27 -28 0 -37 17 -24 43 14 27 42 17 46 -16z
m-6673 -7 c0 -18 -6 -26 -23 -28 -13 -2 -25 3 -28 12 -10 26 4 48 28 44 17 -2
23 -10 23 -28z m-273 -25 c6 -14 18 -25 25 -25 8 0 12 4 9 9 -3 5 4 11 17 13
39 7 79 -6 99 -32 15 -21 16 -30 6 -56 -13 -35 -61 -69 -84 -60 -7 3 -14 1
-14 -5 0 -6 -4 -8 -9 -5 -5 3 -12 -5 -15 -18 -6 -23 -57 -51 -70 -39 -3 3 -13
0 -23 -8 -15 -12 -16 -12 -8 1 7 13 6 13 -11 0 -10 -9 -46 -24 -79 -34 -33
-10 -70 -22 -83 -27 -39 -15 -42 -11 -41 51 1 43 -3 66 -15 79 -29 32 -20 59
26 81 23 11 50 20 59 20 10 0 20 4 23 9 8 13 32 8 53 -10 10 -9 25 -20 33 -24
12 -6 13 -5 3 6 -18 18 -16 64 3 83 8 9 31 16 50 16 27 0 37 -5 46 -25z m7252
2 c21 -16 24 -60 6 -82 -16 -20 -64 -19 -84 1 -49 49 22 122 78 81z m-536 -33
c3 -23 -18 -37 -43 -28 -16 6 -20 35 -8 48 14 14 48 1 51 -20z m-6204 1 c9
-23 -22 -47 -45 -35 -21 12 -21 12 -13 34 8 20 50 21 58 1z m6290 -1 c9 -3 16
-17 16 -30 0 -19 -5 -24 -24 -24 -28 0 -42 26 -25 46 13 16 12 16 33 8z
m-6399 -34 c0 -20 -5 -25 -25 -25 -28 0 -41 32 -18 46 23 15 43 5 43 -21z
m6519 -5 c8 -23 -4 -45 -25 -45 -22 0 -34 22 -25 45 3 8 14 15 25 15 10 0 21
-7 25 -15z m-6620 -11 c7 -19 -10 -44 -29 -44 -19 0 -36 25 -29 44 3 9 16 16
29 16 13 0 26 -7 29 -16z m231 -64 c0 -18 -6 -26 -23 -28 -27 -4 -40 22 -22
44 19 22 45 13 45 -16z m6152 14 c3 -8 -2 -23 -11 -32 -15 -15 -17 -15 -32 0
-21 21 -11 48 16 48 11 0 23 -7 27 -16z m548 -8 c12 -18 13 -30 6 -49 -19 -50
-94 -44 -107 9 -14 56 69 89 101 40z m-441 -21 c9 -23 -22 -47 -45 -35 -24 13
-25 36 -2 48 20 12 39 6 47 -13z m-6366 6 c21 -13 10 -46 -16 -49 -27 -4 -40
22 -22 43 14 17 20 18 38 6z m6462 -26 c18 -21 5 -45 -25 -45 -40 0 -34 54 6
59 4 1 12 -6 19 -14z m-6561 -9 c17 -20 3 -46 -25 -46 -18 0 -24 5 -24 23 0
38 26 50 49 23z m6321 -41 c17 -20 5 -45 -20 -45 -23 0 -35 22 -26 45 7 19 30
19 46 0z m-6586 -28 c25 -70 -78 -109 -105 -40 -16 41 12 75 59 71 30 -2 38
-8 46 -31z m505 19 c15 -18 3 -46 -20 -46 -22 0 -34 22 -25 45 7 19 30 19 45
1z m6623 -13 c22 -20 24 -66 3 -83 -8 -7 -26 -12 -40 -12 -34 0 -55 19 -55 50
0 53 54 80 92 45z m-438 -16 c16 -25 -16 -56 -38 -37 -19 15 -20 32 -4 48 15
15 28 11 42 -11z m-6286 -4 c13 -26 4 -43 -23 -43 -27 0 -40 26 -24 46 16 19
37 17 47 -3z m6390 -41 c4 -28 -24 -40 -45 -19 -21 21 -9 49 19 45 15 -2 24
-11 26 -26z m-6490 -8 c4 -27 -26 -40 -46 -20 -21 20 -8 48 20 44 14 -2 24
-11 26 -24z m242 -39 c0 -27 -26 -40 -46 -24 -19 16 -18 36 3 47 24 14 43 4
43 -23z m6008 9 c4 -27 -26 -40 -46 -20 -21 20 -8 48 20 44 14 -2 24 -11 26
-24z m-6528 -14 c11 -11 20 -29 20 -40 0 -21 -33 -60 -50 -60 -23 0 -59 24
-64 43 -5 21 9 57 28 69 19 13 45 9 66 -12z m6630 -25 c0 -27 -17 -36 -42 -23
-23 11 -23 34 -1 46 24 14 43 4 43 -23z m438 12 c17 -13 15 -62 -4 -81 -46
-47 -123 24 -81 76 21 28 53 29 85 5z m-6653 -17 c0 -18 -6 -26 -23 -28 -27
-4 -40 22 -22 44 19 22 45 13 45 -16z m6313 -28 c4 -28 -24 -40 -45 -19 -14
13 -14 19 -3 32 18 22 44 15 48 -13z m-6413 -12 c0 -33 -40 -41 -50 -11 -9 28
2 43 28 39 16 -2 22 -10 22 -28z m6170 -20 c0 -16 -6 -26 -19 -28 -25 -5 -39
12 -31 38 10 31 50 24 50 -10z m-5930 -10 c0 -18 -6 -26 -21 -28 -23 -3 -37
18 -27 44 10 25 48 13 48 -16z m-507 -28 c33 -42 -10 -101 -63 -88 -44 11 -48
82 -6 102 27 14 50 9 69 -14z m6537 -2 c0 -18 -6 -26 -23 -28 -27 -4 -40 22
-22 44 19 22 45 13 45 -16z m-6127 -8 c4 -28 -24 -41 -44 -20 -20 20 -7 50 20
46 13 -2 22 -12 24 -26z m6566 2 c21 -20 20 -53 -1 -76 -33 -36 -93 -13 -93
37 0 30 25 55 55 55 13 0 31 -7 39 -16z m-339 -34 c0 -18 -6 -26 -23 -28 -27
-4 -40 22 -22 44 19 22 45 13 45 -16z m-6327 -8 c4 -28 -24 -40 -45 -19 -14
13 -14 19 -3 32 18 22 44 15 48 -13z m6086 -6 c9 -13 7 -20 -8 -31 -23 -17
-46 -4 -46 25 0 32 36 36 54 6z m-5845 0 c15 -18 3 -46 -20 -46 -22 0 -34 22
-25 45 7 19 30 19 45 1z m5945 -42 c7 -19 -10 -44 -31 -44 -17 0 -27 24 -19
45 7 20 42 19 50 -1z m-6037 -10 c8 -21 -19 -46 -40 -38 -17 6 -23 35 -10 47
12 13 44 7 50 -9z m-411 -19 c13 -21 15 -31 6 -50 -22 -48 -95 -41 -108 11
-14 57 69 89 102 39z m6878 2 c21 -16 24 -60 6 -82 -16 -20 -64 -19 -84 1 -49
49 22 122 78 81z m-336 -14 c13 -26 4 -43 -23 -43 -13 0 -25 6 -28 13 -6 17
11 47 28 47 8 0 18 -8 23 -17z m-6233 -23 c0 -18 -6 -26 -23 -28 -24 -4 -38
18 -28 44 3 9 15 14 28 12 17 -2 23 -10 23 -28z m243 3 c13 -26 4 -43 -24 -43
-29 0 -41 24 -24 45 17 20 37 19 48 -2z m5750 -9 c4 -27 -26 -40 -46 -20 -21
20 -8 48 20 44 14 -2 24 -11 26 -24z m92 -29 c18 -21 5 -47 -22 -43 -26 3 -37
36 -16 49 18 12 24 11 38 -6z m-5941 -9 c15 -18 3 -46 -20 -46 -22 0 -34 22
-25 45 7 19 30 19 45 1z m-403 -41 c32 -49 -22 -104 -74 -76 -29 16 -37 48
-18 76 23 34 70 34 92 0z m6192 3 c17 -17 15 -45 -4 -52 -18 -7 -44 10 -44 28
0 13 20 36 30 36 3 0 11 -5 18 -12z m250 0 c14 -14 -2 -48 -23 -48 -21 0 -37
34 -23 48 7 7 17 12 23 12 6 0 16 -5 23 -12z m340 0 c7 -7 12 -26 12 -43 0
-37 -16 -55 -49 -55 -52 0 -78 54 -44 92 18 20 63 24 81 6z m-6470 -26 c4 -28
-24 -40 -45 -19 -21 21 -9 49 19 45 15 -2 24 -11 26 -26z m240 11 c13 -26 4
-43 -23 -43 -27 0 -40 26 -24 46 16 19 37 17 47 -3z m5746 -48 c7 -20 -17 -47
-36 -40 -24 9 -29 32 -12 49 16 17 40 12 48 -9z m-5844 0 c17 -20 5 -45 -20
-45 -11 0 -23 7 -26 15 -6 15 11 45 26 45 4 0 13 -7 20 -15z m-412 -41 c32
-22 27 -73 -9 -93 -24 -13 -29 -13 -53 2 -34 22 -36 69 -4 91 28 20 38 20 66
0z m6102 1 c18 -21 5 -45 -25 -45 -20 0 -25 5 -25 23 0 39 26 50 50 22z
m-5781 -9 c17 -20 3 -46 -25 -46 -18 0 -24 5 -24 23 0 38 26 50 49 23z m246
-16 c0 -18 -6 -26 -23 -28 -24 -4 -38 18 -28 44 3 9 15 14 28 12 17 -2 23 -10
23 -28z m5782 14 c3 -8 -2 -23 -11 -32 -15 -15 -17 -15 -32 0 -21 21 -11 48
16 48 11 0 23 -7 27 -16z m337 -10 c20 -20 20 -43 0 -72 -40 -58 -128 5 -89
64 18 28 65 32 89 8z m-6206 -62 c-2 -10 -15 -18 -31 -20 -23 -3 -27 0 -27 22
0 13 6 26 13 29 19 7 49 -13 45 -31z m5719 22 c3 -8 -2 -23 -11 -32 -15 -15
-17 -15 -32 0 -21 21 -11 48 16 48 11 0 23 -7 27 -16z m-152 -54 c0 -18 -6
-26 -23 -28 -13 -2 -25 3 -28 12 -10 26 4 48 28 44 17 -2 23 -10 23 -28z
m-5418 4 c3 -8 -1 -23 -10 -31 -21 -21 -47 -9 -47 22 0 20 5 25 25 25 14 0 28
-7 32 -16z m5658 -14 c0 -29 -38 -41 -48 -16 -10 26 4 47 27 44 15 -2 21 -10
21 -28z m-6223 3 c35 -31 13 -93 -33 -93 -39 0 -59 19 -59 55 0 51 53 74 92
38z m316 -11 c4 -28 -24 -40 -45 -19 -21 21 -9 49 19 45 15 -2 24 -11 26 -26z
m6242 -2 c45 -45 2 -111 -58 -89 -28 11 -43 47 -29 74 20 40 56 46 87 15z
m-6092 -27 c13 -26 4 -43 -23 -43 -13 0 -25 6 -28 13 -6 17 11 47 28 47 8 0
18 -8 23 -17z m5610 -9 c4 -27 -26 -40 -46 -20 -21 20 -8 48 20 44 14 -2 24
-11 26 -24z m-158 -19 c18 -21 5 -47 -22 -43 -26 3 -37 36 -16 49 18 12 24 11
38 -6z m-5295 -5 c11 -18 -6 -50 -26 -50 -22 0 -34 22 -25 45 6 17 42 20 51 5z
m5540 -30 c0 -18 -6 -26 -23 -28 -27 -4 -40 22 -22 44 19 22 45 13 45 -16z
m-5787 8 c7 -7 8 -17 1 -30 -12 -22 -32 -23 -49 -3 -23 28 21 60 48 33z m-320
-14 c32 -22 27 -73 -9 -93 -24 -13 -29 -13 -53 2 -34 22 -36 69 -4 91 28 20
38 20 66 0z m6438 -19 c18 -19 23 -31 19 -48 -15 -47 -61 -61 -95 -27 -26 26
-25 54 2 80 29 26 44 25 74 -5z m-486 0 c17 -20 5 -45 -20 -45 -23 0 -35 22
-26 45 7 19 30 19 46 0z m-5475 -25 c0 -18 -6 -26 -23 -28 -24 -4 -38 18 -28
44 3 9 15 14 28 12 17 -2 23 -10 23 -28z m5325 -9 c7 -15 6 -23 -5 -35 -20
-20 -45 -10 -45 18 0 40 32 50 50 17z m-5175 -21 c0 -16 -6 -26 -19 -28 -25
-5 -39 12 -31 38 10 31 50 24 50 -10z m5415 -5 c18 -21 5 -47 -22 -43 -26 3
-37 36 -16 49 18 12 24 11 38 -6z m-5655 -25 c0 -18 -6 -26 -23 -28 -24 -4
-38 18 -28 44 3 9 15 14 28 12 17 -2 23 -10 23 -28z m-315 -10 c11 -11 20 -29
20 -40 0 -24 -34 -60 -57 -60 -49 0 -72 76 -31 104 30 21 44 20 68 -4z m468
-7 c13 -26 4 -43 -23 -43 -13 0 -25 6 -28 13 -6 17 11 47 28 47 8 0 18 -8 23
-17z m5350 -9 c4 -27 -26 -40 -46 -20 -21 20 -8 48 20 44 14 -2 24 -11 26 -24z
m497 -18 c17 -47 -24 -87 -72 -70 -24 8 -28 15 -28 49 0 32 5 42 24 51 32 16
64 3 76 -30z m-655 9 c18 -21 5 -47 -22 -43 -26 3 -37 36 -16 49 18 12 24 11
38 -6z m-5035 -25 c0 -18 -6 -26 -23 -28 -24 -4 -38 18 -28 44 3 9 15 14 28
12 17 -2 23 -10 23 -28z m5280 -30 c0 -18 -6 -26 -23 -28 -13 -2 -25 3 -28 12
-10 26 4 48 28 44 17 -2 23 -10 23 -28z m-5519 5 c7 -18 -13 -45 -33 -45 -17
0 -27 24 -19 45 7 20 45 19 52 0z m5362 -33 c4 -28 -24 -41 -44 -20 -20 20 -7
50 20 46 13 -2 22 -12 24 -26z m-5678 -2 c11 -11 20 -29 20 -40 0 -22 -33 -60
-53 -60 -48 0 -74 65 -40 102 21 24 48 23 73 -2z m470 -4 c0 -28 -28 -42 -47
-23 -19 19 -5 47 23 47 19 0 24 -5 24 -24z m5055 -16 c0 -18 -6 -26 -23 -28
-13 -2 -25 3 -28 12 -10 26 4 48 28 44 17 -2 23 -10 23 -28z m643 2 c18 -23
15 -49 -8 -72 -27 -27 -55 -25 -79 6 -27 34 -26 40 4 70 27 27 59 26 83 -4z
m-5541 2 c8 -21 -19 -46 -40 -38 -17 6 -23 35 -10 47 12 13 44 7 50 -9z m5143
-48 c0 -20 -25 -37 -44 -30 -19 7 -22 50 -3 57 17 6 47 -11 47 -27z m-5385 -6
c0 -20 -5 -25 -25 -25 -28 0 -41 32 -18 46 23 15 43 5 43 -21z m165 -24 c0
-20 -25 -37 -44 -30 -19 7 -22 50 -3 57 17 6 47 -11 47 -27z m5055 4 c0 -18
-6 -26 -23 -28 -13 -2 -25 3 -28 12 -10 26 4 48 28 44 17 -2 23 -10 23 -28z
m-157 8 c16 -16 15 -23 -3 -42 -17 -17 -40 -12 -49 9 -5 14 18 45 33 45 4 0
12 -5 19 -12z m-4753 -28 c0 -18 -6 -26 -21 -28 -26 -4 -40 24 -23 45 18 21
44 11 44 -17z m-624 10 c22 -12 27 -68 7 -88 -17 -17 -64 -15 -82 4 -48 47 14
116 75 84z m6005 -8 c45 -30 30 -95 -22 -100 -55 -5 -84 49 -47 90 16 18 49
23 69 10z m-5612 -47 c3 -8 -2 -21 -10 -29 -8 -8 -21 -13 -29 -10 -21 8 -26
32 -9 48 16 17 40 12 48 -9z m5224 -3 c4 -28 -24 -41 -44 -20 -20 20 -7 50 20
46 13 -2 22 -12 24 -26z m-154 -7 c5 -15 -18 -45 -34 -45 -5 0 -14 9 -20 19
-7 15 -6 23 5 35 17 17 40 12 49 -9z m-4919 -15 c0 -18 -6 -26 -23 -28 -27 -4
-40 22 -22 44 19 22 45 13 45 -16z m155 5 c17 -20 5 -45 -20 -45 -23 0 -35 22
-26 45 7 19 30 19 46 0z m4606 0 c7 -18 -13 -45 -33 -45 -17 0 -27 24 -19 45
7 20 45 19 52 0z m-5228 -31 c32 -22 27 -73 -9 -93 -24 -13 -29 -13 -53 2 -34
22 -36 69 -4 91 28 20 38 20 66 0z m5848 -2 c6 -4 17 -18 24 -31 10 -20 9 -27
-7 -50 -11 -14 -29 -27 -41 -29 -25 -4 -62 30 -62 58 0 40 55 73 86 52z
m-5472 -18 c9 -3 16 -17 16 -30 0 -19 -5 -24 -25 -24 -30 0 -43 24 -25 45 14
17 13 17 34 9z m5086 -19 c0 -31 -26 -43 -46 -23 -20 20 -7 48 22 48 19 0 24
-5 24 -25z m-322 3 c17 -17 15 -45 -4 -52 -18 -7 -44 10 -44 28 0 13 20 36 30
36 3 0 11 -5 18 -12z m161 -2 c15 -18 4 -46 -18 -46 -27 0 -42 20 -30 42 12
21 32 23 48 4z m-4751 -22 c4 -27 -26 -40 -46 -20 -21 20 -8 48 20 44 14 -2
24 -11 26 -24z m152 11 c17 -20 5 -45 -20 -45 -23 0 -35 22 -26 45 7 19 30 19
46 0z m-622 -51 c32 -22 27 -73 -9 -93 -24 -13 -29 -13 -53 2 -34 22 -36 69
-4 91 28 20 38 20 66 0z m5286 0 c21 -8 21 -50 0 -58 -32 -12 -57 27 -32 52
14 14 12 14 32 6z m404 -10 c40 -28 18 -104 -30 -104 -24 0 -58 35 -58 60 0
22 33 60 53 60 7 0 23 -7 35 -16z m-5300 -11 c13 -26 4 -43 -23 -43 -27 0 -40
26 -24 46 16 19 37 17 47 -3z m4597 -3 c8 -26 -1 -40 -26 -40 -22 0 -34 22
-25 45 8 22 44 18 51 -5z m154 6 c16 -20 3 -46 -24 -46 -13 0 -26 7 -29 16 -7
19 10 44 29 44 7 0 18 -6 24 -14z m-4591 -24 c4 -28 -24 -41 -44 -20 -20 20
-7 50 20 46 13 -2 22 -12 24 -26z m159 12 c8 -21 -19 -46 -40 -38 -17 6 -23
35 -10 47 12 13 44 7 50 -9z m4193 -63 c14 -28 -13 -55 -41 -41 -22 12 -25 30
-7 48 18 18 36 15 48 -7z m-4810 -11 c31 -31 25 -67 -15 -87 -44 -23 -93 24
-76 70 16 41 59 49 91 17z m698 8 c7 -7 8 -17 1 -30 -12 -22 -32 -23 -49 -3
-23 28 21 60 48 33z m4267 -18 c0 -18 -6 -26 -23 -28 -13 -2 -25 3 -28 12 -10
26 4 48 28 44 17 -2 23 -10 23 -28z m160 0 c0 -18 -6 -26 -23 -28 -13 -2 -25
3 -28 12 -10 26 4 48 28 44 17 -2 23 -10 23 -28z m-4738 4 c3 -8 -2 -23 -11
-32 -15 -15 -17 -15 -32 0 -21 21 -11 48 16 48 11 0 23 -7 27 -16z m160 0 c8
-21 -19 -46 -40 -38 -17 6 -23 35 -10 47 12 13 44 7 50 -9z m4977 -6 c21 -30
20 -54 -4 -78 -27 -27 -46 -25 -76 5 -18 19 -23 31 -19 48 15 49 73 63 99 25z
m-800 -51 c8 -12 7 -21 -5 -32 -21 -21 -49 -9 -49 20 0 36 34 44 54 12z
m-3939 -17 c0 -18 -6 -26 -23 -28 -24 -4 -38 18 -28 44 3 9 15 14 28 12 17 -2
23 -10 23 -28z m-156 6 c16 -20 3 -46 -24 -46 -13 0 -26 7 -29 16 -7 19 10 44
29 44 7 0 18 -6 24 -14z m4254 2 c6 -18 -11 -48 -27 -48 -20 0 -39 27 -32 45
7 18 52 20 59 3z m152 -18 c0 -18 -6 -26 -23 -28 -13 -2 -25 3 -28 12 -10 26
4 48 28 44 17 -2 23 -10 23 -28z m-4561 3 c8 -21 -17 -48 -38 -40 -9 4 -16 18
-16 32 0 20 5 25 24 25 13 0 27 -8 30 -17z m-377 -19 c15 -24 15 -29 2 -53
-20 -36 -71 -41 -93 -9 -20 29 -20 47 1 70 24 27 69 23 90 -8z m5347 -17 c17
-48 -23 -88 -71 -71 -68 23 -46 108 26 102 29 -2 38 -8 45 -31z m-809 -17 c0
-18 -6 -26 -23 -28 -13 -2 -25 3 -28 12 -10 26 4 48 28 44 17 -2 23 -10 23
-28z m-3758 4 c3 -8 -2 -23 -11 -32 -15 -15 -17 -15 -32 0 -21 21 -11 48 16
48 11 0 23 -7 27 -16z m-153 -19 c3 -8 -2 -21 -10 -29 -8 -8 -21 -13 -29 -10
-21 8 -26 32 -9 48 16 17 40 12 48 -9z m4070 9 c8 -20 -11 -44 -34 -44 -20 0
-32 23 -24 45 8 20 50 19 58 -1z m-4230 -18 c9 -13 7 -20 -7 -31 -25 -18 -47
-8 -47 20 0 37 34 44 54 11z m4381 -6 c0 -18 -6 -26 -23 -28 -13 -2 -25 3 -28
12 -10 26 4 48 28 44 17 -2 23 -10 23 -28z m-4758 -26 c15 -24 15 -29 2 -53
-11 -20 -22 -26 -49 -26 -27 0 -38 6 -49 26 -13 24 -13 29 2 53 12 18 26 26
47 26 21 0 35 -8 47 -26z m5147 5 c14 -11 26 -30 26 -41 0 -54 -74 -79 -104
-36 -22 31 -20 45 9 73 29 30 35 31 69 4z m-4369 -19 c0 -18 -6 -26 -23 -28
-27 -4 -40 22 -22 44 19 22 45 13 45 -16z m3582 14 c8 -20 -21 -49 -41 -41 -9
4 -16 18 -16 32 0 20 5 25 25 25 14 0 28 -7 32 -16z m-3737 -19 c18 -21 5 -45
-25 -45 -40 0 -34 54 6 59 4 1 12 -6 19 -14z m3885 -15 c0 -18 -6 -26 -23 -28
-13 -2 -25 3 -28 12 -10 26 4 48 28 44 17 -2 23 -10 23 -28z m149 14 c19 -7
21 -35 4 -52 -7 -7 -17 -8 -30 -1 -21 11 -24 45 -5 52 6 3 13 6 14 6 1 1 8 -2
17 -5z m-4189 -34 c0 -18 -6 -26 -23 -28 -13 -2 -25 3 -28 12 -10 26 4 48 28
44 17 -2 23 -10 23 -28z m404 -4 c16 -20 3 -46 -24 -46 -27 0 -36 17 -23 43
10 20 31 22 47 3z m3394 2 c6 -18 -11 -48 -27 -48 -20 0 -39 27 -32 45 7 18
52 20 59 3z m-4175 -20 c17 -17 15 -64 -4 -82 -48 -49 -117 13 -84 75 12 22
68 27 88 7z m4326 -11 c8 -12 7 -21 -5 -32 -21 -21 -49 -9 -49 20 0 36 34 44
54 12z m-3699 -17 c0 -18 -6 -26 -23 -28 -13 -2 -25 3 -28 12 -10 26 4 48 28
44 17 -2 23 -10 23 -28z m4343 18 c20 -20 15 -76 -7 -88 -28 -14 -52 -12 -73
7 -20 18 -24 63 -6 81 16 16 70 16 86 0z m-4503 -38 c0 -18 -6 -26 -21 -28
-26 -4 -40 24 -23 45 18 21 44 11 44 -17z m3609 7 c8 -12 7 -21 -5 -32 -21
-21 -49 -9 -49 20 0 36 34 44 54 12z m409 11 c6 -18 -11 -48 -28 -48 -17 0
-34 30 -28 48 3 6 15 12 28 12 13 0 25 -6 28 -12z m-3608 -28 c0 -18 -6 -26
-23 -28 -13 -2 -25 3 -28 12 -10 26 4 48 28 44 17 -2 23 -10 23 -28z m-155
-15 c18 -21 5 -47 -22 -43 -26 3 -37 36 -16 49 18 12 24 11 38 -6z m3505 -15
c0 -18 -6 -26 -23 -28 -13 -2 -25 3 -28 12 -10 26 4 48 28 44 17 -2 23 -10 23
-28z m-4137 4 c28 -19 29 -57 2 -84 -24 -24 -38 -25 -68 -4 -26 18 -29 60 -5
86 20 22 42 23 71 2z m882 -9 c18 -21 5 -47 -22 -43 -26 3 -37 36 -16 49 18
12 24 11 38 -6z m3005 -15 c0 -18 -6 -26 -23 -28 -13 -2 -25 3 -28 12 -10 26
4 48 28 44 17 -2 23 -10 23 -28z m405 15 c18 -21 5 -45 -25 -45 -40 0 -34 54
6 59 4 1 12 -6 19 -14z m482 3 c9 -7 19 -23 23 -35 9 -32 -36 -77 -68 -68 -49
15 -63 73 -25 99 27 19 49 20 70 4z m-4297 -28 c0 -18 -6 -26 -23 -28 -24 -4
-38 18 -28 44 3 9 15 14 28 12 17 -2 23 -10 23 -28z m255 -15 c17 -20 5 -45
-20 -45 -23 0 -35 22 -26 45 7 19 30 19 46 0z m3308 -9 c5 -25 -12 -39 -37
-31 -20 6 -28 34 -14 49 13 13 48 1 51 -18z m-3058 -1 c18 -21 5 -47 -22 -43
-26 3 -37 36 -16 49 18 12 24 11 38 -6z m2805 -15 c0 -18 -6 -26 -23 -28 -24
-4 -38 18 -28 44 3 9 15 14 28 12 17 -2 23 -10 23 -28z m-3687 -6 c42 -29 16
-104 -37 -104 -24 0 -51 32 -51 61 0 27 30 59 55 59 6 0 21 -7 33 -16z m466
10 c19 -7 21 -50 4 -57 -18 -6 -48 11 -48 26 0 7 5 18 12 25 14 14 12 14 32 6z
m3632 -9 c7 -18 -13 -45 -33 -45 -17 0 -27 24 -19 45 7 20 45 19 52 0z m478
-8 c26 -19 24 -67 -4 -89 -27 -22 -39 -22 -68 -2 -43 30 -16 104 38 104 9 0
24 -6 34 -13z m-986 -40 c-2 -16 -10 -22 -28 -22 -28 0 -39 27 -20 50 18 21
52 1 48 -28z m236 37 c23 -9 20 -51 -3 -57 -34 -8 -53 27 -29 51 14 14 12 14
32 6z m-3088 -19 c7 -18 -13 -45 -33 -45 -17 0 -27 24 -19 45 7 20 45 19 52 0z
m249 -15 c0 -18 -6 -26 -23 -28 -24 -4 -38 18 -28 44 3 9 15 14 28 12 17 -2
23 -10 23 -28z m-405 -35 c0 -27 -17 -36 -42 -23 -23 11 -23 34 -1 46 24 14
43 4 43 -23z m3409 21 c15 -18 4 -46 -19 -46 -28 0 -45 27 -30 45 16 19 34 19
49 1z m-2915 -2 c19 -7 21 -50 4 -57 -18 -6 -48 11 -48 26 0 7 5 18 12 25 14
14 12 14 32 6z m2411 -24 c0 -18 -6 -26 -23 -28 -24 -4 -38 18 -28 44 3 9 15
14 28 12 17 -2 23 -10 23 -28z m255 -3 c0 -22 -17 -39 -36 -35 -22 4 -32 47
-13 59 16 9 49 -7 49 -24z m-3638 6 c44 -40 2 -115 -54 -94 -42 16 -50 59 -18
91 24 24 47 25 72 3z m733 -13 c0 -18 -6 -26 -23 -28 -13 -2 -25 3 -28 12 -10
26 4 48 28 44 17 -2 23 -10 23 -28z m3637 3 c36 -32 13 -95 -35 -95 -36 0 -57
19 -57 53 0 52 53 77 92 42z m-3272 -38 c0 -25 -36 -37 -54 -19 -9 8 -16 17
-16 19 0 2 7 11 16 19 18 18 54 6 54 -19z m2179 17 c12 -22 -3 -42 -30 -42
-22 0 -33 28 -18 46 16 19 36 17 48 -4z m-2699 -7 c17 -20 5 -45 -20 -45 -23
0 -35 22 -26 45 7 19 30 19 46 0z m2949 1 c23 -28 -17 -68 -45 -45 -17 14 -18
31 -2 47 16 16 33 15 47 -2z m256 -16 c0 -18 -6 -26 -23 -28 -13 -2 -25 3 -28
12 -10 26 4 48 28 44 17 -2 23 -10 23 -28z m-2941 4 c7 -19 -10 -44 -29 -44
-7 0 -18 7 -25 15 -10 12 -10 18 0 30 16 20 46 19 54 -1z m351 -34 c0 -29 -38
-41 -48 -16 -10 26 4 47 27 44 15 -2 21 -10 21 -28z m1980 20 c11 -18 -6 -50
-26 -50 -22 0 -34 22 -25 45 6 17 42 20 51 5z m-3061 -16 c48 -47 -14 -116
-75 -84 -22 12 -27 68 -7 88 17 17 64 15 82 -4z m4137 5 c45 -23 39 -94 -8
-105 -31 -8 -73 20 -73 49 0 33 22 57 58 66 2 1 12 -4 23 -10z m-3317 -5 c20
-8 21 -38 1 -54 -29 -24 -60 21 -33 48 14 14 12 14 32 6z m2491 -24 c0 -18 -6
-26 -23 -28 -24 -4 -38 18 -28 44 3 9 15 14 28 12 17 -2 23 -10 23 -28z m254
16 c16 -20 3 -46 -24 -46 -13 0 -26 7 -29 16 -7 19 10 44 29 44 7 0 18 -6 24
-14z m-2986 -8 c6 -18 -11 -48 -27 -48 -20 0 -37 25 -30 44 7 19 50 22 57 4z
m607 -3 c18 -21 5 -47 -22 -43 -26 3 -37 36 -16 49 18 12 24 11 38 -6z m1765
-15 c0 -18 -6 -26 -23 -28 -24 -4 -38 18 -28 44 3 9 15 14 28 12 17 -2 23 -10
23 -28z m-2011 -24 c9 -13 7 -20 -8 -31 -32 -24 -62 15 -34 43 15 15 28 11 42
-12z m356 9 c16 -19 6 -45 -18 -45 -28 0 -43 20 -31 42 12 22 32 23 49 3z
m1549 -3 c7 -13 6 -23 -1 -30 -17 -17 -45 -15 -52 3 -15 39 33 64 53 27z m349
9 c21 -13 10 -46 -16 -49 -24 -4 -38 18 -28 43 6 17 24 19 44 6z m-2510 -45
c-4 -26 -37 -28 -52 -3 -9 15 -7 21 8 32 24 18 48 2 44 -29z m2776 20 c9 -13
7 -20 -8 -31 -23 -17 -46 -4 -46 25 0 32 36 36 54 6z m-3352 -3 c23 -21 23
-55 -1 -77 -48 -44 -122 15 -87 70 19 28 60 32 88 7z m2619 7 c24 -14 24 -36
0 -50 -28 -14 -55 13 -41 41 12 22 15 23 41 9z m1315 -15 c18 -19 23 -31 19
-48 -15 -47 -61 -61 -95 -27 -38 38 -14 94 43 99 4 1 19 -10 33 -24z m-2632
-1 c7 -19 -10 -44 -30 -44 -16 0 -33 30 -27 48 7 18 50 15 57 -4z m-366 -3
c21 -13 10 -46 -16 -49 -24 -4 -38 18 -28 43 6 17 24 19 44 6z m1586 -13 c8
-14 7 -21 -6 -34 -30 -30 -75 9 -48 42 16 18 39 15 54 -8z m461 -8 c0 -18 -6
-26 -23 -28 -24 -4 -38 18 -28 44 3 9 15 14 28 12 17 -2 23 -10 23 -28z
m-1571 4 c7 -19 -10 -44 -29 -44 -19 0 -36 25 -29 44 3 9 16 16 29 16 13 0 26
-7 29 -16z m-729 -24 c0 -18 -6 -26 -23 -28 -27 -4 -40 22 -22 44 19 22 45 13
45 -16z m838 8 c8 -12 7 -21 -2 -32 -18 -22 -38 -20 -51 5 -22 40 29 66 53 27z
m891 0 c8 -14 7 -21 -5 -33 -28 -29 -73 11 -48 42 15 17 38 13 53 -9z m831 -8
c0 -18 -6 -26 -23 -28 -24 -4 -38 18 -28 44 3 9 15 14 28 12 17 -2 23 -10 23
-28z m-2185 -14 c0 -20 -25 -37 -44 -30 -19 7 -21 35 -4 52 14 14 48 -2 48
-22z m1808 25 c21 -13 10 -46 -16 -49 -27 -4 -40 22 -22 43 14 17 20 18 38 6z
m-2758 -21 c11 -11 20 -31 20 -44 0 -26 -33 -56 -62 -56 -47 0 -66 76 -26 104
30 21 44 20 68 -4z m1524 3 c8 -21 -17 -48 -38 -40 -9 4 -16 18 -16 32 0 20 5
25 24 25 13 0 27 -8 30 -17z m564 -20 c-4 -22 -32 -38 -52 -30 -21 8 -21 43 1
56 22 12 55 -5 51 -26z m105 25 c6 -18 -11 -48 -27 -48 -20 0 -37 25 -30 44 7
19 50 22 57 4z m-558 -22 c0 -10 -8 -24 -18 -30 -24 -15 -53 19 -35 41 16 20
53 12 53 -11z m109 0 c9 -13 7 -20 -8 -31 -23 -17 -46 -4 -46 25 0 32 36 36
54 6z m100 18 c21 -8 21 -50 0 -58 -32 -12 -57 27 -32 52 14 14 12 14 32 6z
m110 0 c19 -7 21 -50 4 -57 -18 -6 -48 11 -48 26 0 7 5 18 12 25 14 14 12 14
32 6z m1752 -2 c23 -15 35 -51 24 -72 -31 -59 -110 -39 -110 28 0 37 54 65 86
44z m-3016 -37 c0 -27 -26 -40 -46 -24 -19 16 -18 36 3 47 24 14 43 4 43 -23z
m370 -5 c0 -23 -28 -34 -46 -19 -19 16 -17 36 3 48 21 11 43 -3 43 -29z m1588
31 c23 -14 10 -46 -21 -49 -23 -3 -27 0 -27 22 0 21 10 32 30 35 3 0 11 -3 18
-8z m372 -6 c17 -20 5 -45 -20 -45 -23 0 -35 22 -26 45 7 19 30 19 46 0z
m-1855 -45 c0 -18 -6 -26 -21 -28 -26 -4 -40 24 -23 45 18 21 44 11 44 -17z
m1380 0 c0 -18 -6 -26 -23 -28 -24 -4 -38 18 -28 44 3 9 15 14 28 12 17 -2 23
-10 23 -28z m-1744 4 c9 -11 10 -20 3 -32 -15 -23 -29 -25 -48 -7 -12 12 -13
21 -6 36 13 23 33 25 51 3z m2108 2 c16 -20 3 -46 -24 -46 -13 0 -26 7 -29 16
-7 19 10 44 29 44 7 0 18 -6 24 -14z m-2791 -8 c7 -7 12 -26 12 -43 0 -38 -16
-55 -51 -55 -34 0 -59 24 -59 55 0 13 7 31 16 39 18 19 65 21 82 4z m1162 -3
c17 -21 5 -45 -24 -45 -28 0 -37 17 -24 43 11 21 31 22 48 2z m1148 -2 c13
-26 4 -43 -23 -43 -27 0 -40 26 -24 46 16 19 37 17 47 -3z m1170 1 c42 -29 16
-104 -37 -104 -24 0 -51 32 -51 61 0 27 30 59 55 59 6 0 21 -7 33 -16z m-2203
-34 c0 -18 -6 -26 -23 -28 -24 -4 -38 18 -28 44 3 9 15 14 28 12 17 -2 23 -10
23 -28z m920 0 c0 -18 -6 -26 -23 -28 -24 -4 -38 18 -28 44 3 9 15 14 28 12
17 -2 23 -10 23 -28z m-1400 -10 c0 -18 -6 -26 -23 -28 -24 -4 -38 18 -28 44
3 9 15 14 28 12 17 -2 23 -10 23 -28z m589 14 c20 -19 20 -28 2 -43 -11 -9
-20 -10 -35 -1 -24 12 -27 30 -9 48 16 16 23 15 42 -4z m694 4 c29 -29 -9 -69
-43 -44 -14 10 -15 16 -6 34 13 25 31 28 49 10z m600 -14 c3 -23 -18 -37 -43
-28 -16 6 -20 35 -8 48 14 14 48 1 51 -20z m-1174 -7 c16 -25 -16 -56 -38 -37
-19 15 -20 32 -4 48 15 15 28 11 42 -11z m450 17 c20 -8 21 -38 2 -53 -7 -6
-21 -9 -30 -5 -19 7 -22 50 -3 57 6 3 13 6 14 6 1 1 8 -2 17 -5z m-335 -18
c16 -20 3 -46 -24 -46 -13 0 -26 7 -29 16 -7 19 10 44 29 44 7 0 18 -6 24 -14z
m116 -16 c0 -20 -5 -25 -25 -25 -28 0 -41 32 -18 46 23 15 43 5 43 -21z m114
16 c15 -18 4 -46 -19 -46 -28 0 -45 27 -30 45 16 19 34 19 49 1z m-1737 -13
c23 -21 23 -55 -1 -77 -48 -44 -122 15 -87 70 19 28 60 32 88 7z m798 2 c10
-12 10 -18 0 -30 -7 -8 -18 -15 -25 -15 -19 0 -36 25 -29 44 8 20 38 21 54 1z
m1654 -1 c7 -19 -10 -44 -30 -44 -16 0 -33 30 -27 48 7 18 50 15 57 -4z m792
8 c6 -4 17 -18 24 -31 10 -20 9 -27 -7 -50 -11 -14 -29 -27 -41 -29 -25 -4
-62 30 -62 58 0 40 55 73 86 52z m-922 -18 c20 -8 21 -38 1 -54 -12 -10 -18
-10 -30 0 -18 15 -20 46 -2 53 6 3 13 6 14 6 1 1 8 -2 17 -5z m-1406 -30 c4
-27 -26 -40 -46 -20 -21 20 -8 48 20 44 14 -2 24 -11 26 -24z m-798 -14 c11
-11 20 -29 20 -39 0 -21 -44 -61 -66 -61 -21 0 -54 37 -54 60 0 11 9 29 20 40
11 11 29 20 40 20 11 0 29 -9 40 -20z m918 -7 c3 -22 -28 -40 -48 -28 -12 7
-13 38 -3 49 15 14 48 1 51 -21z m1182 2 c0 -31 -26 -43 -47 -22 -21 21 -9 47
22 47 20 0 25 -5 25 -25z m922 -2 c39 -35 7 -98 -48 -91 -18 2 -34 13 -43 29
-13 24 -13 29 2 53 20 30 61 35 89 9z m-1988 -9 c13 -33 -30 -58 -53 -30 -16
20 -3 46 24 46 13 0 26 -7 29 -16z m950 0 c7 -19 -10 -44 -30 -44 -16 0 -33
30 -27 48 7 18 50 15 57 -4z m-836 -11 c13 -26 4 -43 -23 -43 -27 0 -40 26
-24 46 16 19 37 17 47 -3z m711 3 c15 -18 3 -46 -20 -46 -22 0 -34 22 -25 45
7 19 30 19 45 1z m-594 -26 c0 -18 -6 -26 -23 -28 -27 -4 -40 22 -22 44 19 22
45 13 45 -16z m480 0 c0 -18 -6 -26 -23 -28 -13 -2 -25 3 -28 12 -10 26 4 48
28 44 17 -2 23 -10 23 -28z m-1639 12 c6 -4 16 -17 23 -29 18 -36 -11 -82 -51
-83 -24 0 -58 35 -58 60 0 40 55 73 86 52z m1282 -20 c4 -28 -24 -40 -45 -19
-21 21 -9 49 19 45 15 -2 24 -11 26 -26z m117 -2 c0 -18 -6 -26 -23 -28 -13
-2 -25 3 -28 12 -10 26 4 48 28 44 17 -2 23 -10 23 -28z m120 0 c0 -18 -6 -26
-23 -28 -13 -2 -25 3 -28 12 -10 26 4 48 28 44 17 -2 23 -10 23 -28z m1279 4
c37 -37 3 -98 -50 -92 -18 2 -34 13 -43 29 -13 24 -13 29 2 53 20 30 66 35 91
10z m-2657 -50 c15 -24 15 -29 2 -53 -27 -48 -109 -32 -109 22 0 56 76 77 107
31z m2531 6 c12 -12 22 -30 22 -40 0 -26 -34 -60 -60 -60 -24 0 -60 34 -60 57
0 22 39 63 60 63 9 0 26 -9 38 -20z m-2418 -40 c34 -34 20 -80 -27 -95 -32 -9
-77 36 -68 68 15 47 61 61 95 27z m2290 2 c43 -35 20 -102 -34 -102 -62 0 -75
92 -16 113 24 9 27 8 50 -11z m-2166 -38 c20 -20 21 -68 1 -84 -19 -16 -61
-16 -80 0 -20 16 -19 64 1 84 8 9 26 16 39 16 13 0 31 -7 39 -16z m2044 0 c42
-29 16 -104 -37 -104 -44 0 -66 67 -34 102 20 22 42 23 71 2z m-1918 -34 c11
-11 20 -29 20 -40 0 -23 -33 -60 -54 -60 -46 0 -75 44 -55 83 23 42 57 49 89
17z m1800 -5 c18 -22 15 -66 -6 -82 -56 -41 -127 32 -78 81 20 20 68 21 84 1z
m-1690 -15 c33 -18 44 -48 26 -75 -21 -32 -52 -40 -81 -21 -33 21 -34 69 -3
90 26 19 33 19 58 6z m1572 -23 c33 -51 -36 -112 -84 -74 -30 23 -31 55 -4 82
22 22 29 23 53 14 15 -5 31 -16 35 -22z m-1428 -13 c33 -32 9 -94 -35 -94 -39
0 -59 19 -59 55 0 51 58 75 94 39z m1290 -3 c24 -27 17 -72 -13 -87 -30 -15
-62 -4 -78 26 -29 57 49 108 91 61z m-1162 -18 c37 -33 10 -93 -43 -93 -50 0
-70 54 -36 98 13 17 57 15 79 -5z m1029 7 c23 -13 26 -72 4 -90 -22 -18 -66
-15 -82 6 -40 54 17 116 78 84z m-901 -20 c11 -11 20 -29 20 -40 0 -26 -34
-60 -60 -60 -25 0 -60 34 -60 59 0 21 44 61 66 61 8 0 23 -9 34 -20z m776 -5
c18 -19 23 -31 19 -48 -14 -46 -63 -61 -97 -30 -38 34 -11 97 45 102 4 1 19
-10 33 -24z m-639 -21 c15 -24 15 -29 2 -53 -20 -36 -71 -41 -93 -9 -20 29
-20 47 1 70 24 27 69 23 90 -8z m123 6 c11 -11 20 -29 20 -40 0 -26 -34 -60
-60 -60 -11 0 -29 9 -40 20 -11 11 -20 29 -20 40 0 11 9 29 20 40 11 11 29 20
40 20 11 0 29 -9 40 -20z m125 -5 c14 -13 25 -31 25 -40 0 -23 -37 -55 -65
-55 -54 0 -72 90 -22 110 33 13 36 12 62 -15z m135 3 c11 -12 20 -29 20 -38 0
-23 -37 -60 -60 -60 -26 0 -60 34 -60 60 0 26 34 60 60 60 10 0 28 -10 40 -22z
m137 -4 c15 -24 15 -29 2 -53 -28 -50 -109 -32 -109 25 0 55 76 75 107 28z"/>
<path d="M3831 6872 c-18 -13 -29 -13 -53 -4 -25 9 -35 8 -54 -5 -20 -13 -30
-14 -51 -4 -21 10 -29 9 -43 -4 -19 -18 -51 -20 -67 -4 -8 8 -17 5 -32 -10
-24 -24 -34 -26 -64 -10 -16 9 -22 9 -25 0 -7 -20 -51 -32 -72 -21 -15 8 -24
6 -40 -10 -23 -23 -33 -24 -60 -10 -15 8 -21 6 -30 -11 -10 -17 -19 -20 -50
-17 -28 2 -41 -1 -49 -14 -8 -12 -24 -18 -49 -18 -26 0 -43 -7 -56 -21 -13
-16 -25 -20 -47 -15 -22 4 -31 1 -39 -14 -8 -14 -21 -20 -48 -20 -26 0 -41 -6
-50 -20 -8 -13 -23 -20 -42 -20 -18 0 -39 -10 -55 -26 -19 -19 -32 -24 -51
-20 -13 4 -24 2 -24 -3 0 -19 -32 -41 -61 -41 -16 0 -29 -4 -29 -9 0 -19 -32
-41 -58 -41 -19 0 -30 -7 -37 -22 -7 -16 -20 -24 -41 -26 -22 -2 -35 -11 -43
-28 -7 -15 -22 -27 -41 -31 -17 -3 -36 -15 -42 -27 -14 -27 -28 -36 -55 -36
-13 0 -23 -6 -23 -14 0 -22 -29 -46 -56 -46 -16 0 -24 -6 -24 -18 0 -24 -19
-42 -44 -42 -14 0 -26 -12 -36 -33 -11 -23 -23 -33 -43 -35 -18 -2 -27 -9 -27
-21 0 -21 -30 -51 -51 -51 -8 0 -21 -15 -29 -33 -9 -19 -24 -33 -36 -35 -15
-2 -24 -13 -28 -33 -4 -22 -14 -34 -35 -42 -21 -8 -31 -19 -33 -36 -2 -18 -13
-31 -36 -41 -18 -9 -30 -19 -26 -23 12 -11 -25 -57 -46 -57 -16 0 -20 -7 -20
-30 0 -23 -7 -35 -30 -49 -16 -10 -28 -20 -25 -23 13 -12 -16 -58 -40 -64 -13
-3 -22 -10 -19 -16 11 -18 -6 -55 -31 -66 -16 -7 -23 -17 -19 -27 8 -19 -22
-65 -42 -65 -11 0 -13 -6 -9 -20 8 -24 -18 -70 -40 -70 -9 0 -12 -6 -9 -15 10
-25 -5 -63 -26 -70 -15 -5 -18 -12 -14 -34 5 -22 0 -32 -20 -49 -21 -16 -25
-26 -20 -46 4 -19 0 -31 -19 -48 -18 -17 -24 -31 -20 -50 3 -17 -1 -31 -15
-44 -14 -13 -20 -31 -20 -53 1 -23 -5 -40 -19 -51 -16 -13 -18 -21 -11 -34 11
-20 -4 -66 -22 -66 -7 0 -9 -13 -5 -34 6 -27 2 -39 -14 -55 -17 -17 -19 -26
-11 -41 11 -21 -1 -65 -21 -72 -9 -3 -9 -9 0 -25 12 -24 0 -73 -19 -73 -7 0
-8 -6 0 -19 14 -28 13 -52 -5 -71 -13 -14 -14 -22 -4 -43 10 -21 9 -31 -5 -51
-13 -20 -14 -30 -5 -50 10 -20 9 -30 -6 -52 -12 -19 -14 -29 -6 -37 14 -14 14
-60 1 -73 -8 -8 -7 -19 1 -37 9 -20 9 -33 1 -51 -8 -18 -8 -33 1 -55 9 -24 9
-36 -1 -51 -10 -17 -9 -25 4 -46 13 -20 15 -30 6 -49 -9 -19 -8 -31 5 -54 16
-27 16 -30 0 -55 -10 -14 -13 -26 -7 -26 20 0 34 -48 22 -74 -9 -20 -8 -27 5
-37 11 -9 14 -24 10 -51 -3 -26 0 -41 10 -50 10 -8 13 -24 11 -47 -3 -25 1
-44 15 -62 16 -22 17 -30 7 -49 -10 -19 -9 -24 10 -37 16 -11 21 -24 18 -48
-1 -22 4 -41 16 -54 12 -13 17 -29 13 -47 -3 -20 1 -32 16 -44 13 -11 20 -28
19 -50 0 -24 6 -38 20 -48 15 -11 19 -23 16 -48 -3 -26 0 -35 14 -40 20 -6 34
-45 24 -69 -3 -8 -1 -15 4 -15 17 0 40 -32 40 -57 0 -15 10 -33 26 -45 18 -14
24 -28 22 -47 -2 -20 4 -30 26 -44 23 -15 27 -23 24 -47 -3 -20 0 -30 8 -30
22 0 44 -30 44 -61 0 -18 5 -29 13 -29 23 0 50 -37 44 -60 -4 -15 0 -20 14
-20 21 0 53 -43 47 -62 -3 -7 8 -18 24 -25 19 -8 30 -22 34 -43 4 -16 12 -30
19 -30 19 0 45 -34 45 -58 0 -15 6 -22 18 -22 22 0 52 -30 52 -51 0 -8 14 -20
30 -26 22 -8 32 -20 36 -42 5 -23 12 -31 33 -33 20 -2 28 -11 36 -35 7 -25 15
-33 33 -33 15 0 29 -10 39 -27 8 -16 30 -35 47 -43 19 -9 32 -24 34 -37 2 -17
10 -23 27 -23 26 0 55 -24 55 -46 0 -8 10 -14 24 -14 27 0 56 -24 56 -46 0 -9
11 -14 30 -14 24 0 35 -7 47 -29 11 -18 25 -29 40 -29 27 1 53 -19 53 -38 0
-9 11 -14 29 -14 29 0 61 -22 61 -41 0 -5 13 -9 29 -9 19 0 36 -8 49 -24 13
-17 25 -23 40 -19 14 3 29 -3 47 -21 16 -16 37 -26 55 -26 19 0 34 -7 42 -20
9 -13 24 -20 45 -20 20 0 37 -7 45 -19 10 -13 25 -19 48 -19 21 1 39 -6 49
-18 11 -13 26 -18 47 -16 20 2 36 -4 48 -17 13 -14 26 -18 49 -14 24 4 37 0
51 -16 15 -16 22 -18 38 -10 16 9 26 7 47 -8 18 -14 37 -18 62 -15 23 2 39 -1
48 -11 8 -11 23 -14 47 -10 25 4 40 1 53 -11 15 -14 24 -15 40 -7 23 13 71 -1
71 -21 0 -9 3 -9 12 0 17 17 63 15 78 -3 9 -11 16 -13 24 -5 13 13 69 13 83
-1 8 -8 17 -8 33 1 24 13 70 6 70 -10 0 -6 12 -3 26 7 22 14 31 15 56 5 22 -8
36 -8 50 -1 11 6 35 9 53 7 19 -2 33 -1 33 2 -2 13 15 40 26 40 6 0 22 8 36
17 13 9 40 18 59 20 19 2 41 9 48 14 9 8 17 6 29 -5 15 -15 18 -16 34 -1 20
18 70 117 70 139 0 9 7 16 15 16 11 0 6 -19 -21 -81 -19 -45 -32 -84 -29 -87
3 -3 0 -11 -6 -18 -7 -9 -4 -16 12 -28 21 -14 24 -14 41 1 12 11 28 14 52 10
24 -4 39 -1 47 10 9 11 24 14 51 10 25 -3 41 0 49 10 8 8 26 13 46 11 42 -3
57 12 62 65 1 4 18 26 39 50 45 51 72 98 72 125 0 16 -6 20 -26 19 -38 -3 -40
18 -4 33 16 7 31 19 31 26 2 23 4 28 13 43 7 10 6 12 -4 6 -10 -6 -12 -4 -7 8
5 14 2 14 -35 1 -49 -17 -45 -17 -52 1 -4 12 7 21 39 35 43 18 44 20 39 57 -4
31 -3 35 6 21 6 -10 17 -18 25 -18 19 0 3 45 -16 46 -13 0 -87 -23 -131 -41
-14 -5 -18 -2 -18 13 0 15 14 25 61 42 l61 23 -7 86 c-4 47 -11 96 -16 109 -5
13 -9 36 -9 52 0 16 -6 30 -12 32 -20 7 -44 -31 -109 -169 -33 -70 -66 -137
-72 -148 -26 -47 -45 -92 -50 -122 -7 -37 12 -49 58 -37 25 6 27 9 20 43 -12
62 -11 85 5 89 12 2 23 -27 48 -129 18 -73 31 -134 28 -136 -8 -9 -112 -33
-148 -35 -20 0 -44 5 -54 12 -22 19 -42 21 -48 3 -3 -8 -1 -11 4 -8 5 3 7 0 4
-8 -7 -19 -34 -17 -34 3 0 9 3 20 7 24 13 12 32 89 26 99 -3 6 -1 7 5 3 16
-10 15 7 0 23 -11 10 -9 11 7 5 13 -4 5 9 -23 38 -23 24 -39 47 -36 51 14 14
48 7 70 -14 l22 -21 -2 26 c-2 14 1 23 5 20 5 -3 9 5 9 17 0 19 -2 20 -17 8
-17 -13 -17 -12 -2 6 26 33 39 76 42 140 2 33 13 92 25 130 67 219 66 214 52
255 -8 25 -17 37 -26 33 -8 -3 -14 0 -14 6 0 15 -59 41 -77 34 -27 -10 -12 26
21 52 30 24 33 30 24 51 -6 13 -16 22 -21 21 -6 -1 -12 8 -13 20 -1 18 4 23
22 23 12 0 30 8 40 17 16 16 15 18 -11 29 -16 6 -23 13 -17 15 6 2 8 9 4 16
-5 9 -210 13 -807 18 l-800 7 -55 25 c-70 31 -116 75 -146 138 l-24 50 0 665
0 665 24 50 c25 55 73 102 139 137 l42 23 1019 3 c1149 3 1074 8 1166 -75 84
-75 93 -103 98 -280 l4 -153 22 32 c32 48 172 88 202 58 6 -6 21 -6 42 0 60
17 77 -5 42 -50 -11 -14 -20 -40 -20 -58 0 -37 -23 -87 -72 -157 -67 -95 -75
-115 -145 -325 -58 -174 -89 -350 -63 -350 6 0 10 -7 10 -15 0 -42 70 -15 204
79 55 38 35 6 -43 -70 -45 -43 -81 -84 -81 -91 0 -8 13 -12 33 -11 18 1 41 -4
52 -9 11 -6 24 -13 30 -15 5 -1 9 -8 7 -13 -1 -6 22 -23 51 -38 28 -14 81 -56
117 -92 36 -37 75 -71 88 -76 31 -12 27 -26 -12 -43 -37 -15 -56 -54 -56 -113
0 -24 -8 -41 -26 -58 -15 -14 -30 -22 -35 -19 -5 3 -15 2 -21 -3 -7 -4 -17 -8
-23 -9 -5 0 -16 -2 -24 -2 -9 -2 -12 -11 -8 -29 3 -16 7 -37 9 -48 2 -11 8
-23 13 -27 11 -8 -5 -11 -42 -8 -24 1 -32 -23 -13 -35 6 -3 10 -13 10 -22 0
-12 -7 -14 -32 -9 -21 4 -28 3 -19 -3 11 -7 11 -9 0 -14 -11 -4 -12 -7 -1 -18
6 -7 12 -16 12 -19 0 -10 -52 -10 -88 -1 -49 14 -95 3 -89 -20 3 -11 3 -19 0
-19 -12 0 -43 22 -43 31 0 6 -7 17 -15 25 -8 8 -21 25 -30 37 -12 17 -19 20
-33 11 -26 -17 -42 -54 -42 -104 0 -33 -3 -41 -10 -30 -8 12 -14 10 -36 -17
-14 -18 -34 -33 -44 -33 -13 0 -17 -5 -14 -15 4 -8 1 -21 -5 -29 -7 -8 -16
-38 -21 -67 -6 -30 -14 -74 -19 -99 -6 -27 -6 -51 0 -62 6 -10 5 -19 -1 -23
-6 -3 2 -39 20 -87 17 -45 30 -85 30 -89 0 -3 -13 -12 -28 -18 -20 -8 -28 -19
-28 -36 0 -14 3 -25 6 -25 4 0 12 -17 18 -39 7 -21 19 -44 27 -51 8 -7 15 -19
15 -27 0 -11 4 -11 21 -3 11 6 30 10 42 8 13 -1 32 7 46 21 17 17 30 22 50 18
21 -4 29 -1 36 16 7 15 21 23 43 25 18 2 43 14 58 29 18 18 31 23 49 19 18 -5
25 -1 30 14 8 26 40 43 65 35 14 -4 20 -2 20 8 0 20 33 47 57 47 11 0 28 11
37 25 11 17 26 25 46 25 23 0 30 5 30 20 0 21 27 40 59 40 14 0 21 6 21 19 0
24 24 43 55 43 17 0 25 6 25 18 0 21 31 50 54 50 9 0 21 11 26 25 9 24 47 47
61 39 4 -2 9 10 13 27 4 21 14 33 33 40 16 5 34 22 41 39 8 17 23 33 35 36 12
3 29 20 37 37 9 19 24 33 36 35 15 2 24 13 28 33 4 22 14 34 36 42 21 8 30 18
30 33 0 26 24 54 46 54 8 0 14 10 14 23 0 24 28 57 48 57 6 0 12 15 14 33 2
22 10 35 26 42 13 6 22 18 22 32 0 24 32 63 51 63 7 0 9 9 6 21 -4 15 3 29 21
48 15 14 28 37 29 51 1 14 12 33 25 44 15 12 22 27 20 42 -2 15 5 32 21 46 15
15 25 34 25 53 0 19 7 34 21 43 14 10 21 25 21 48 0 23 6 38 19 46 14 9 18 19
14 39 -4 20 1 33 18 50 16 16 22 32 20 56 -2 22 3 35 16 43 14 9 17 21 15 50
-3 30 0 41 16 51 16 10 18 17 10 35 -9 18 -7 29 8 51 10 16 17 42 15 61 -1 18
3 40 10 48 7 9 12 33 10 53 -1 24 3 42 12 50 12 9 13 18 4 41 -10 25 -8 33 12
54 14 15 19 26 12 31 -16 9 -13 61 4 75 12 10 12 15 -1 35 -14 21 -14 27 0 52
9 19 11 34 5 44 -13 21 -11 55 6 69 13 11 13 15 0 33 -19 27 -19 51 0 67 14
12 14 15 0 30 -18 19 -19 43 -5 71 8 14 6 25 -6 44 -15 23 -15 27 -1 49 14 21
14 26 2 36 -17 14 -20 66 -5 75 6 4 1 18 -12 35 -18 25 -20 34 -10 54 9 20 8
27 -5 37 -11 10 -14 24 -9 55 4 31 1 45 -10 55 -11 9 -14 23 -11 45 4 22 1 37
-9 45 -10 8 -14 26 -13 50 2 26 -3 44 -15 58 -12 13 -17 29 -13 47 3 18 -2 33
-15 46 -12 12 -18 30 -16 47 1 17 -5 35 -15 46 -12 11 -17 29 -15 49 2 23 -3
36 -20 50 -18 14 -23 26 -20 47 4 22 -1 33 -20 45 -19 12 -23 22 -20 45 4 22
-1 33 -19 44 -17 11 -23 25 -23 50 0 25 -5 35 -19 40 -23 7 -35 37 -26 65 4
14 2 20 -8 20 -22 0 -50 37 -44 60 3 11 1 20 -4 20 -18 0 -49 40 -49 63 0 16
-9 28 -25 35 -14 6 -26 18 -26 27 -1 8 -2 21 -3 28 -1 6 -13 20 -28 29 -21 13
-28 26 -28 48 0 23 -4 30 -20 30 -21 0 -55 43 -46 59 3 5 -8 14 -24 20 -22 7
-32 18 -36 39 -4 19 -15 32 -35 39 -21 8 -31 20 -35 42 -4 20 -13 31 -28 33
-12 2 -27 16 -36 35 -8 18 -24 33 -35 35 -11 2 -27 17 -35 35 -10 21 -24 33
-43 37 -21 4 -29 13 -33 36 -6 25 -11 30 -36 30 -24 0 -32 6 -41 30 -6 17 -18
30 -27 30 -25 0 -60 29 -60 50 0 13 -5 17 -15 14 -21 -8 -65 22 -65 45 0 14
-5 18 -20 14 -23 -6 -60 21 -60 44 0 8 -11 13 -29 13 -31 0 -61 22 -61 45 0 8
-7 11 -19 8 -24 -6 -58 12 -66 36 -4 13 -12 17 -30 14 -17 -4 -31 2 -48 21
-14 15 -35 26 -50 26 -14 0 -33 10 -44 23 -12 15 -27 21 -44 19 -19 -2 -32 4
-46 21 -14 19 -26 24 -45 20 -18 -3 -33 2 -47 16 -12 12 -34 21 -51 21 -18 0
-37 8 -47 19 -12 14 -24 18 -44 14 -19 -4 -33 1 -48 16 -15 15 -28 19 -50 15
-21 -4 -34 -1 -48 13 -14 14 -29 19 -50 16 -21 -4 -37 1 -50 14 -15 15 -24 16
-46 9 -22 -8 -31 -6 -50 12 -16 15 -27 18 -37 12 -24 -15 -48 -12 -69 11 -12
13 -21 17 -26 10 -9 -16 -60 -13 -74 3 -9 11 -18 12 -40 3 -23 -8 -34 -7 -53
5 -16 11 -30 13 -39 7 -21 -13 -55 -11 -68 5 -10 12 -16 12 -38 1 -25 -13 -46
-11 -70 8 -9 6 -18 6 -26 -2 -10 -8 -17 -7 -26 2 -9 9 -14 9 -21 -2 -7 -12
-11 -12 -24 -2 -12 10 -19 9 -38 -3 -20 -13 -28 -13 -49 -2 -21 11 -29 10 -48
-2z m128 -213 c32 -11 51 -35 51 -63 0 -24 -26 -19 -44 9 -31 47 -139 24 -109
-23 5 -10 38 -24 72 -33 34 -9 74 -27 88 -40 14 -13 23 -17 19 -9 -4 8 0 6 8
-4 16 -20 16 -20 16 0 0 14 2 16 9 6 11 -18 21 18 21 80 0 71 5 78 59 78 86 0
151 -12 151 -27 0 -11 -16 -14 -72 -13 -40 1 -79 1 -85 1 -8 -1 -13 -15 -13
-36 0 -39 8 -43 95 -47 39 -2 51 -7 53 -21 3 -17 -3 -18 -70 -15 l-73 3 0 -40
c0 -38 1 -40 40 -47 22 -4 56 -7 77 -7 29 -1 35 -4 32 -18 -5 -16 -20 -18
-141 -18 -96 0 -137 4 -140 12 -3 8 -12 9 -34 1 -47 -16 -110 -4 -136 27 -13
14 -23 32 -23 40 0 19 23 32 28 16 10 -29 43 -51 77 -51 20 0 35 5 35 12 0 6
3 8 7 5 11 -12 31 13 26 33 -5 19 -23 28 -103 52 -59 17 -82 55 -60 95 27 48
77 63 139 42z m-356 -56 c8 -10 18 -30 22 -45 6 -22 1 -33 -22 -55 l-28 -28
53 -50 c48 -44 52 -50 35 -58 -15 -6 -29 2 -70 42 -37 38 -58 51 -79 51 -49 0
-56 -11 -45 -61 14 -61 14 -69 -7 -69 -16 0 -22 18 -40 118 -12 64 -22 124
-22 133 0 34 175 52 203 22z m937 2 c31 -16 50 -43 50 -69 0 -27 -29 -18 -45
14 -27 53 -98 52 -138 -2 -14 -19 -21 -44 -21 -79 -1 -44 3 -54 27 -75 36 -31
68 -30 105 1 53 45 80 24 31 -24 -61 -62 -171 -32 -199 54 -19 59 12 155 59
180 34 19 95 19 131 0z m-1230 -49 c0 -9 -26 -23 -67 -37 -38 -12 -71 -23 -75
-25 -10 -6 14 -74 27 -74 7 0 38 9 70 20 36 12 62 17 68 11 16 -16 -1 -28 -68
-47 -36 -10 -65 -24 -65 -30 0 -20 22 -74 30 -74 5 0 37 9 72 20 76 24 88 24
88 6 0 -10 -30 -24 -87 -41 -49 -15 -92 -28 -97 -28 -8 -2 -85 223 -86 249 0
10 146 62 178 63 6 1 12 -5 12 -13z m1410 7 c0 -5 -13 -50 -29 -102 -15 -52
-26 -103 -23 -114 6 -23 66 -50 93 -42 28 9 43 38 70 133 21 74 38 98 53 73
14 -22 -58 -217 -85 -231 -27 -15 -86 -12 -119 5 -58 30 -63 69 -23 197 21 69
31 88 45 88 10 0 18 -3 18 -7z m392 -143 c72 -34 48 -140 -32 -140 -16 0 -20
-5 -16 -17 8 -26 26 -126 24 -128 -2 -2 -12 1 -24 5 -17 7 -22 20 -28 63 -3
31 -9 63 -12 72 -6 14 -53 45 -69 45 -3 0 -17 -25 -30 -55 -18 -40 -29 -53
-40 -49 -8 4 -15 10 -15 14 0 7 83 199 101 232 10 18 16 17 141 -42z m-2073
24 c19 -13 22 -24 19 -55 -3 -32 0 -39 14 -39 21 0 58 -46 58 -72 0 -37 -22
-60 -87 -89 -37 -16 -71 -28 -76 -26 -6 2 -34 57 -62 122 l-53 120 57 27 c66
31 98 34 130 12z m-244 -101 c-17 -141 -17 -143 12 -200 24 -45 26 -55 13 -63
-11 -6 -21 3 -45 42 -25 42 -43 57 -105 90 -41 22 -76 44 -78 49 -9 24 33 18
92 -13 l64 -35 7 76 c6 69 15 90 38 91 4 0 5 -17 2 -37z m2485 -15 c0 -17
-122 -238 -132 -238 -26 0 -13 40 43 143 41 76 67 113 76 110 7 -3 13 -10 13
-15z m159 -86 c69 -44 88 -61 79 -70 -9 -9 -19 -7 -45 9 -18 11 -37 18 -42 15
-5 -4 -35 -47 -66 -96 -51 -81 -76 -104 -88 -82 -3 4 24 52 59 107 69 109 69
99 10 139 -16 10 -16 36 -1 36 2 0 45 -26 94 -58z m-2878 -63 c16 -8 18 -13 9
-24 -9 -11 -17 -12 -30 -5 -30 16 -55 12 -85 -16 -24 -22 -27 -30 -22 -72 14
-126 187 -155 187 -31 0 22 5 39 14 42 20 8 26 -2 26 -43 0 -59 -62 -120 -120
-120 -42 0 -92 33 -122 79 -25 38 -29 54 -25 91 9 82 100 136 168 99z m3018
-33 c8 -9 9 -37 5 -85 l-7 -71 71 24 c60 21 73 22 89 11 17 -13 17 -14 -7 -23
-14 -5 -56 -17 -93 -28 -61 -17 -73 -24 -105 -67 -31 -41 -38 -45 -50 -33 -13
12 -10 20 21 58 33 40 36 49 42 136 8 92 13 104 34 78z m-3246 -300 c8 -21
-67 -78 -82 -63 -9 9 -3 19 26 44 43 37 49 39 56 19z m-207 -263 c41 -39 50
-63 22 -63 -6 0 -28 15 -48 34 -33 30 -47 35 -107 41 -94 8 -115 14 -110 28 3
8 28 11 85 9 l81 -3 -19 57 c-23 66 -25 85 -8 102 10 10 17 -7 35 -75 21 -79
28 -92 69 -130z m3664 172 c27 -27 31 -38 22 -47 -10 -10 -20 -5 -48 24 -20
20 -33 41 -30 47 11 17 20 14 56 -24z m298 -115 c58 -36 86 -104 62 -150 -19
-35 -40 -13 -33 35 5 38 2 47 -20 69 -43 43 -107 29 -161 -34 -34 -41 -33 -74
4 -112 26 -26 35 -29 65 -24 19 4 35 5 35 2 0 -2 2 -11 6 -19 8 -21 -50 -30
-90 -13 -108 45 -100 183 13 243 54 28 76 29 119 3z m-4223 -70 c4 -6 -3 -26
-15 -46 -26 -41 -34 -31 93 -115 42 -28 77 -54 77 -58 -1 -32 -23 -25 -117 39
l-101 69 -21 -34 c-19 -33 -56 -50 -49 -22 5 18 112 177 120 177 4 0 10 -5 13
-10z m4349 -201 l-34 -69 42 0 c68 0 116 -11 123 -28 5 -13 -7 -14 -88 -9 -91
5 -96 4 -145 -24 -41 -23 -52 -26 -61 -15 -9 11 -1 20 39 45 45 28 56 42 92
117 37 76 43 84 54 69 11 -15 8 -28 -22 -86z m-1961 58 c349 -100 600 -368
647 -693 5 -38 10 -124 10 -191 l0 -123 -225 0 -225 0 0 123 c0 190 -32 282
-131 377 -222 213 -619 151 -751 -117 -34 -69 -35 -80 -41 -283 l-2 -95 -222
-3 -223 -2 0 158 c0 126 4 175 20 237 80 313 339 548 690 626 122 27 330 21
453 -14z m-2438 -153 c112 -64 126 -76 105 -89 -10 -6 -175 81 -224 118 -16
12 -16 37 0 37 3 0 56 -30 119 -66z m-85 -94 c6 -10 10 -30 10 -45 0 -21 3
-24 18 -16 9 5 43 12 76 16 57 7 58 7 47 -13 -8 -15 -25 -23 -59 -27 -75 -10
-96 -20 -115 -53 l-18 -31 53 -27 c64 -32 60 -28 53 -47 -5 -12 -27 -6 -123
40 -64 30 -121 58 -126 63 -12 12 65 153 93 166 29 15 77 1 91 -26z m4684 -46
c23 -52 27 -72 20 -93 -12 -32 -57 -56 -81 -42 -14 8 -19 4 -28 -22 -12 -38
-51 -56 -92 -41 -20 7 -38 29 -65 79 -20 39 -34 73 -30 76 11 10 226 109 237
109 6 0 24 -30 39 -66z m-4726 -243 c37 -20 52 -42 52 -76 0 -71 -41 -125 -95
-125 -17 0 -69 13 -115 30 -65 22 -86 34 -88 49 -3 19 0 19 84 -9 126 -43 156
-40 174 16 19 56 -2 76 -114 114 -79 26 -93 34 -89 50 5 17 9 17 87 -10 46
-15 92 -33 104 -39z m4327 49 c43 -16 75 -59 75 -99 0 -48 -6 -54 -71 -84 -31
-14 -73 -40 -92 -56 -54 -48 -67 -42 -68 32 -4 144 4 189 35 209 16 11 90 10
121 -2z m511 -82 c15 -46 29 -88 31 -94 2 -6 -2 -14 -10 -17 -11 -4 -22 14
-42 69 -15 41 -30 74 -35 74 -9 0 -70 -21 -70 -24 0 -1 11 -35 24 -74 23 -66
23 -72 7 -72 -12 0 -23 17 -37 63 -20 61 -21 62 -54 59 -59 -5 -61 -10 -34
-87 28 -82 29 -95 10 -95 -9 0 -26 35 -46 96 -18 52 -30 96 -29 98 6 3 243 85
251 85 3 1 19 -36 34 -81z m78 -274 c17 -85 17 -87 -2 -113 -26 -35 -76 -40
-107 -11 l-23 21 -47 -50 c-26 -28 -51 -48 -56 -45 -19 11 -7 41 32 79 53 52
60 66 50 101 -8 31 -9 31 -88 18 -35 -5 -43 -3 -43 10 0 9 12 19 28 23 44 11
216 51 227 52 6 0 19 -38 29 -85z m-5117 59 c2 -6 -12 -20 -31 -31 -91 -54
-37 -164 81 -166 37 -1 49 4 69 27 32 37 31 81 -1 113 -19 18 -23 30 -16 41 8
15 13 13 40 -14 27 -27 31 -39 31 -83 0 -46 -4 -56 -34 -86 -30 -30 -40 -34
-85 -34 -68 0 -116 21 -141 62 -35 58 -19 136 34 169 32 20 47 20 53 2z m-112
-362 l-7 -78 37 -7 c20 -4 39 -5 42 -3 2 3 7 37 10 76 5 60 9 71 24 71 15 0
18 -6 14 -27 -16 -105 -15 -121 8 -127 12 -3 34 -6 50 -6 24 0 27 4 27 34 0
69 12 126 27 126 13 0 14 -15 8 -92 -4 -51 -11 -97 -16 -102 -5 -6 -46 -5
-103 2 -52 7 -111 12 -131 12 l-36 0 6 58 c14 131 16 142 32 142 13 0 14 -11
8 -79z m5105 -42 c0 -6 -13 -24 -30 -39 -20 -19 -30 -38 -30 -57 0 -58 56 -97
79 -55 5 9 12 35 16 57 15 82 47 114 101 101 56 -14 73 -139 24 -178 -47 -38
-69 -13 -25 28 41 38 28 114 -20 114 -25 0 -31 -12 -50 -107 -9 -43 -50 -76
-85 -68 -45 10 -70 50 -70 109 0 42 5 58 25 80 24 26 65 36 65 15z m-4927
-161 c35 -18 46 -40 47 -90 0 -58 -15 -92 -47 -107 -52 -24 -59 -4 -13 39 49
46 36 137 -20 128 -19 -2 -27 -15 -46 -73 -23 -72 -43 -95 -80 -95 -40 0 -66
32 -72 88 -4 47 -2 54 26 82 17 16 35 30 41 30 20 0 12 -28 -15 -55 -21 -21
-25 -32 -20 -58 7 -36 31 -58 52 -50 8 3 23 36 34 74 27 89 61 115 113 87z
m5040 -108 l77 0 0 -62 c0 -91 -10 -138 -28 -138 -12 0 -14 13 -9 80 l5 80
-44 0 -44 0 0 -76 c0 -66 -2 -75 -17 -72 -16 3 -18 13 -14 81 l3 77 -45 0 -45
0 -7 -85 c-5 -62 -11 -85 -21 -85 -11 0 -14 18 -14 74 0 40 3 88 6 106 l7 32
56 -6 c31 -3 91 -5 134 -6z m-4980 -250 c4 -15 -7 -32 -40 -63 -56 -53 -64
-68 -57 -107 7 -30 8 -31 48 -25 22 4 48 9 57 11 14 4 36 -22 27 -32 -9 -8
-263 -43 -269 -37 -4 5 -12 40 -18 80 -13 84 -4 119 34 133 40 15 54 12 81
-15 l25 -25 52 50 c28 27 52 50 53 50 1 0 4 -9 7 -20z m4960 -26 c19 -9 41
-29 51 -44 41 -70 -1 -180 -68 -180 -25 0 -19 30 8 40 30 11 46 39 46 77 0 62
-89 107 -159 81 -62 -24 -78 -95 -31 -136 21 -18 27 -52 9 -52 -6 0 -25 14
-41 32 -28 30 -30 37 -26 87 4 45 10 59 37 83 26 23 40 28 86 28 30 0 70 -7
88 -16z m-4904 -276 c22 -72 44 -159 40 -161 -8 -6 -236 -67 -250 -67 -10 0
-22 27 -37 84 -26 99 -26 106 -7 106 8 0 19 -17 25 -42 24 -92 32 -110 47
-104 8 3 20 6 26 6 34 1 37 15 17 85 -11 38 -18 71 -15 73 14 14 34 -14 49
-72 15 -52 22 -66 35 -62 9 3 28 8 44 12 15 3 27 8 27 10 0 2 -9 37 -20 76
-24 86 -24 88 -6 88 8 0 19 -15 25 -32z m4835 -12 c48 -14 90 -27 92 -29 3 -2
2 -11 -1 -19 -5 -13 -17 -12 -88 8 -124 35 -158 29 -173 -31 -14 -55 10 -73
149 -110 52 -14 67 -22 67 -36 0 -24 4 -24 -115 11 -65 19 -106 37 -117 51
-34 40 -16 142 29 168 28 16 61 13 157 -13z m-4339 -86 c19 -16 20 -87 1 -106
-15 -14 -63 -17 -105 -5 -35 9 -54 67 -33 99 9 13 25 27 36 31 24 9 80 -2 101
-19z m-427 -162 c18 -21 62 -116 62 -137 0 -5 -56 -31 -125 -59 l-125 -51 -16
37 c-34 82 -39 118 -20 147 15 23 23 26 57 23 27 -2 39 0 39 9 0 7 9 22 20 33
28 28 81 26 108 -2z m4647 -24 c61 -25 114 -49 118 -54 12 -11 -52 -159 -73
-170 -50 -27 -110 5 -110 59 l0 29 -37 -13 c-58 -19 -113 -27 -113 -16 0 21
32 39 81 46 35 5 60 15 76 31 37 37 30 58 -27 82 -30 12 -50 27 -50 36 0 24
15 20 135 -30z m-815 -73 c0 -5 -11 -16 -25 -25 -29 -19 -33 -11 -8 16 17 19
33 24 33 9z m702 -198 c65 -32 117 -60 117 -63 1 -3 -3 -11 -8 -18 -12 -20
-253 101 -245 123 4 8 9 15 13 15 3 0 59 -26 123 -57z m-4392 -5 c0 -4 -22
-19 -49 -33 -43 -21 -55 -34 -92 -105 -24 -44 -46 -80 -50 -80 -22 0 -15 39
16 96 40 72 41 70 -48 77 -52 3 -76 15 -77 37 0 3 42 0 93 -6 l92 -12 50 28
c47 27 64 26 65 -2z m4295 -148 l99 -59 24 40 c21 35 42 44 42 18 0 -11 -68
-129 -93 -163 -26 -35 -39 -9 -17 34 23 44 29 36 -92 109 -85 51 -96 60 -81
74 11 11 15 9 118 -53z m-4204 -16 c44 -22 74 -93 59 -138 -11 -33 -58 -85
-97 -105 -64 -33 -159 13 -178 88 -6 25 11 91 25 91 15 0 32 -28 20 -35 -17
-11 -11 -61 11 -89 50 -63 189 0 189 86 0 44 -42 81 -85 76 -34 -4 -53 12 -39
33 8 14 62 11 95 -7z m4056 -183 c12 -6 58 -11 102 -11 81 0 88 -3 72 -29 -7
-11 -26 -13 -86 -8 -69 5 -76 4 -70 -11 44 -111 46 -122 32 -142 -12 -18 -16
-12 -43 72 -27 85 -32 94 -76 126 -41 29 -46 36 -37 53 10 19 11 19 47 -9 20
-16 47 -34 59 -41z m-2245 -210 c19 -18 40 -99 30 -115 -4 -6 -7 -13 -8 -16
-6 -33 -18 -58 -33 -67 -30 -18 -108 -19 -128 -1 -10 9 -28 19 -40 22 -23 7
-55 84 -50 118 4 21 37 59 47 53 3 -2 18 2 33 10 52 27 117 25 149 -4z m2064
-2 c3 -6 -10 -27 -30 -47 -28 -29 -38 -34 -48 -24 -9 9 -5 20 22 47 36 38 45
41 56 24z m-3587 -79 c23 -19 32 -34 27 -45 -5 -15 -9 -14 -34 4 -39 27 -55
48 -47 61 9 15 16 12 54 -20z m3381 -71 c0 -3 16 -23 35 -43 75 -80 58 -187
-36 -227 -35 -14 -94 -1 -94 21 0 11 10 14 41 12 57 -4 98 30 98 81 0 43 -40
99 -84 117 -62 26 -126 -34 -105 -99 4 -12 0 -21 -11 -25 -22 -9 -34 10 -34
55 0 67 68 120 147 116 24 -1 43 -5 43 -8z m-3014 -133 c3 -8 -8 -33 -25 -57
-29 -40 -31 -47 -31 -136 0 -92 0 -93 -21 -83 -18 10 -20 19 -17 86 2 41 0 74
-3 74 -3 0 -33 -11 -67 -25 -56 -23 -92 -25 -92 -5 0 4 38 22 85 39 73 28 89
38 117 77 33 46 45 53 54 30z m2713 -84 c27 -43 42 -54 117 -87 76 -34 84 -40
70 -53 -13 -14 -22 -12 -83 15 l-68 31 -3 -74 c-2 -63 -6 -75 -24 -85 -20 -11
-20 -10 -13 80 7 90 7 91 -25 142 -29 48 -34 79 -11 79 5 0 23 -22 40 -48z
m-2516 -76 c-8 -17 -33 -61 -54 -98 -22 -36 -39 -70 -39 -75 0 -5 16 -17 35
-27 36 -20 42 -30 25 -41 -10 -6 -175 79 -185 96 -15 23 9 28 47 8 22 -11 41
-19 42 -17 2 2 29 49 60 106 47 84 60 101 72 92 11 -10 11 -17 -3 -44z m2372
44 c3 -6 -1 -7 -9 -4 -18 7 -21 14 -7 14 6 0 13 -4 16 -10z m-11 -16 c11 -4
13 -11 7 -22 -6 -12 6 -46 40 -116 27 -54 49 -101 49 -103 0 -8 -126 -63 -145
-63 -37 0 -65 28 -65 65 0 27 -6 37 -27 47 -39 18 -56 57 -42 96 8 23 26 38
82 65 80 40 79 39 101 31z m-2194 -74 c0 -4 -25 -62 -56 -128 -41 -88 -60
-119 -71 -115 -20 8 -13 29 47 156 37 77 55 104 66 100 7 -3 14 -9 14 -13z
m74 -36 c9 -8 16 -21 16 -28 0 -7 7 -35 15 -63 12 -40 21 -53 44 -63 38 -15
46 -10 61 45 14 50 26 63 43 46 7 -7 -2 -44 -33 -128 -24 -65 -46 -121 -49
-125 -3 -4 -38 4 -76 18 -83 29 -120 64 -110 103 10 38 34 61 66 61 l28 0 -13
38 c-20 56 -28 112 -17 112 5 0 17 -7 25 -16z m412 -135 c24 -22 26 -29 21
-84 -9 -116 -48 -215 -70 -177 -3 4 6 49 19 100 28 109 23 134 -30 152 -62 20
-82 -6 -116 -158 -13 -56 -19 -65 -39 -53 -9 6 -7 29 13 107 31 124 54 149
128 142 33 -4 57 -13 74 -29z m282 -52 c20 -21 27 -38 30 -85 8 -106 -38 -162
-131 -162 -36 0 -51 6 -76 29 -34 31 -40 56 -16 65 10 3 20 -5 30 -23 38 -74
135 -47 155 44 19 85 -40 154 -109 125 -17 -6 -33 -21 -36 -31 -7 -21 -13 -23
-34 -10 -12 8 -12 13 3 36 23 35 51 46 109 41 36 -2 56 -10 75 -29z m517 9
c31 -13 55 -41 55 -65 0 -20 -32 -11 -52 14 -34 44 -128 29 -128 -20 0 -30 7
-34 87 -51 69 -14 92 -32 93 -72 0 -38 -18 -61 -59 -73 -69 -20 -141 9 -141
58 0 20 34 15 48 -7 9 -14 23 -20 50 -20 41 0 62 14 62 41 0 24 -9 28 -76 39
-66 11 -104 40 -104 80 0 69 86 109 165 76z m-253 -4 c35 -4 37 -6 34 -36 -2
-17 -4 -77 -5 -133 l-1 -103 -100 0 c-90 0 -100 2 -100 18 0 16 8 18 81 14
l80 -4 -3 43 -3 44 -72 3 c-56 2 -73 6 -73 17 0 12 16 15 75 15 l74 0 7 34 c3
19 3 39 -1 45 -3 6 -40 11 -86 11 -73 0 -79 2 -79 21 0 18 5 20 68 18 37 -1
84 -4 104 -7z"/>
<path d="M3471 6579 c-32 -10 -33 -12 -26 -47 4 -20 8 -39 10 -41 10 -9 96 12
117 28 20 16 21 22 10 45 -13 29 -46 33 -111 15z"/>
<path d="M4982 6397 c-16 -46 -18 -44 35 -67 69 -30 114 -11 98 40 -5 16 -88
60 -112 60 -5 0 -14 -15 -21 -33z"/>
<path d="M2980 6422 c-8 -2 -30 -11 -48 -18 l-32 -13 17 -36 c13 -28 21 -34
37 -29 35 10 71 40 74 62 4 23 -24 42 -48 34z"/>
<path d="M2987 6303 c-40 -16 -41 -25 -13 -80 l11 -22 53 24 c41 19 52 29 52
48 0 47 -36 58 -103 30z"/>
<path d="M1644 5172 c-6 -4 -23 -31 -38 -60 l-27 -53 35 -14 c20 -8 39 -15 44
-15 9 0 52 89 52 108 0 11 -34 42 -46 42 -5 0 -14 -4 -20 -8z"/>
<path d="M6332 5143 c-30 -12 -33 -17 -27 -41 12 -49 34 -73 63 -70 34 4 41
42 15 91 -18 34 -18 34 -51 20z"/>
<path d="M6217 5089 l-37 -20 15 -36 c21 -49 34 -63 59 -63 27 0 46 18 46 42
0 16 -36 99 -43 98 -1 -1 -19 -10 -40 -21z"/>
<path d="M6496 4613 c-15 -4 -17 -11 -12 -44 12 -77 41 -109 80 -87 17 10 20
39 10 101 -6 32 -10 37 -33 36 -14 -1 -34 -3 -45 -6z"/>
<path d="M1401 3641 c-10 -6 -12 -25 -9 -70 2 -33 6 -63 9 -65 2 -3 23 -2 47
1 l42 6 -6 41 c-12 80 -43 113 -83 87z"/>
<path d="M1658 3130 c-22 -18 -22 -18 -5 -74 l18 -55 42 16 c23 9 43 17 45 19
2 1 -6 25 -18 52 -24 57 -49 69 -82 42z"/>
<path d="M1546 3075 c-11 -12 -12 -22 -4 -48 5 -17 12 -40 15 -49 3 -10 7 -18
9 -18 9 0 74 29 74 33 0 3 -7 22 -16 43 -23 56 -48 68 -78 39z"/>
<path d="M6370 3048 c-32 -70 -22 -108 27 -108 19 0 28 11 48 57 14 31 24 57
23 58 -7 6 -68 35 -73 35 -3 0 -15 -19 -25 -42z"/>
<path d="M5088 1814 c-36 -18 -48 -30 -48 -47 0 -47 35 -59 95 -30 40 19 41
25 17 70 l-17 31 -47 -24z"/>
<path d="M5137 1695 c-41 -29 -41 -29 -27 -56 13 -23 44 -24 87 -1 32 17 32
17 16 50 -19 39 -27 39 -76 7z"/>
<path d="M3020 1590 c-17 -31 3 -56 62 -78 l53 -20 12 30 c20 46 16 54 -30 72
-57 21 -84 20 -97 -4z"/>
<path d="M3924 3829 c-100 -29 -179 -129 -177 -224 1 -81 29 -130 110 -195
l31 -25 -49 -210 c-26 -115 -48 -220 -49 -232 l0 -23 210 0 c123 0 210 4 210
9 0 5 -23 110 -50 233 l-51 223 23 15 c80 54 128 130 128 205 0 55 -40 135
-86 173 -64 54 -169 75 -250 51z"/>
<path d="M5252 3590 c0 -59 1 -62 10 -32 8 22 8 42 0 65 -9 29 -10 26 -10 -33z"/>
<path d="M5017 2063 c-12 -12 -7 -53 6 -53 9 0 12 10 9 30 -5 32 -5 33 -15 23z"/>
<path d="M4897 2013 c-14 -49 -17 -82 -9 -104 5 -13 6 -52 3 -86 -6 -58 -6
-61 12 -51 14 7 22 7 26 -1 4 -6 6 41 4 105 -3 77 -8 123 -17 136 -13 19 -14
19 -19 1z"/>
<path d="M4629 1515 c-61 -16 -69 -22 -69 -49 0 -41 23 -51 86 -37 l56 13 -7
36 c-4 21 -10 40 -13 43 -4 3 -28 1 -53 -6z"/>
<path d="M4340 1180 c0 -5 5 -10 11 -10 5 0 7 5 4 10 -3 6 -8 10 -11 10 -2 0
-4 -4 -4 -10z"/>
</g>
</svg>
